<svg width="25" height="24" viewBox="0 0 25 24" fill="none" xmlns="http://www.w3.org/2000/svg">
<path d="M3.5 9.75H8V19.5H3.5C3.30109 19.5 3.11032 19.421 2.96967 19.2803C2.82902 19.1397 2.75 18.9489 2.75 18.75V10.5C2.75 10.3011 2.82902 10.1103 2.96967 9.96967C3.11032 9.82902 3.30109 9.75 3.5 9.75V9.75Z" stroke="#40FD48" stroke-width="1.5" stroke-linecap="round" stroke-linejoin="round"/>
<path d="M8 9.75L11.75 2.25C12.5456 2.25 13.3087 2.56607 13.8713 3.12868C14.4339 3.69129 14.75 4.45435 14.75 5.25V7.5H20.5531C20.7658 7.49947 20.9762 7.54447 21.17 7.63197C21.3639 7.71946 21.5368 7.84743 21.6771 8.00728C21.8174 8.16712 21.9219 8.35514 21.9835 8.55871C22.0451 8.76228 22.0625 8.97667 22.0344 9.1875L20.9094 18.1875C20.8639 18.5488 20.6885 18.8812 20.4159 19.1227C20.1434 19.3642 19.7923 19.4983 19.4281 19.5H8" stroke="#40FD48" stroke-width="1.5" stroke-linecap="round" stroke-linejoin="round"/>
</svg>
