<svg width="303" height="60" viewBox="0 0 303 60" fill="none" xmlns="http://www.w3.org/2000/svg">
<g clip-path="url(#clip0_4_150)">
<path d="M216.358 18.2146C216.375 17.8254 216.453 17.4621 216.584 17.1248C216.714 16.7874 216.906 16.4847 217.149 16.2338C217.401 15.983 217.706 15.784 218.08 15.637C218.454 15.49 218.897 15.4121 219.41 15.4121C219.923 15.4121 220.358 15.4813 220.732 15.6284C221.106 15.7754 221.419 15.9743 221.663 16.2252C221.906 16.476 222.106 16.7788 222.237 17.1161C222.367 17.4535 222.445 17.8167 222.463 18.2146C222.463 18.3444 222.48 18.4914 222.48 18.6471C222.48 18.8028 222.48 18.9672 222.48 19.1402C222.48 19.3131 222.48 19.4688 222.48 19.6332C222.48 19.7975 222.48 19.9359 222.463 20.0657C222.445 20.4549 222.367 20.8182 222.237 21.1555C222.106 21.4929 221.923 21.7956 221.671 22.0465C221.419 22.2973 221.106 22.4963 220.732 22.6433C220.358 22.7904 219.915 22.8596 219.41 22.8596C218.906 22.8596 218.454 22.7904 218.08 22.6433C217.706 22.4963 217.393 22.2973 217.149 22.0465C216.897 21.7956 216.714 21.5015 216.584 21.1555C216.453 20.8182 216.384 20.4549 216.358 20.0657C216.358 19.9359 216.349 19.7889 216.34 19.6332C216.332 19.4775 216.34 19.3131 216.34 19.1402C216.34 18.9672 216.34 18.8115 216.34 18.6471C216.34 18.4828 216.34 18.3444 216.358 18.2146ZM221.063 18.2665C221.036 17.7735 220.871 17.3843 220.584 17.1161C220.289 16.848 219.897 16.7096 219.419 16.7096C218.941 16.7096 218.541 16.848 218.254 17.1161C217.958 17.3843 217.801 17.7735 217.775 18.2665C217.758 18.526 217.758 18.8201 217.758 19.1402C217.758 19.4602 217.758 19.7543 217.775 20.0138C217.801 20.5068 217.967 20.8874 218.254 21.1555C218.549 21.4237 218.941 21.5621 219.419 21.5621C219.897 21.5621 220.289 21.4237 220.584 21.1555C220.88 20.8874 221.036 20.5068 221.063 20.0138C221.08 19.7543 221.089 19.4602 221.089 19.1402C221.089 18.8201 221.089 18.526 221.063 18.2665Z" fill="white"/>
<path d="M226.793 15.5248C227.628 15.5248 228.28 15.7237 228.741 16.1129C229.202 16.5022 229.437 17.0817 229.437 17.8342C229.437 18.5868 229.202 19.1663 228.741 19.5728C228.28 19.9707 227.628 20.1697 226.793 20.1697H225.132V22.4705C225.132 22.5484 225.106 22.6089 225.045 22.6695C224.993 22.7214 224.924 22.756 224.845 22.756H224.002C223.924 22.756 223.863 22.73 223.802 22.6695C223.75 22.6176 223.715 22.5484 223.715 22.4705V15.8016C223.715 15.7237 223.741 15.6632 223.802 15.6026C223.854 15.5507 223.924 15.5161 224.002 15.5161H226.785L226.793 15.5248ZM225.132 18.8809H226.741C227.141 18.8809 227.454 18.803 227.689 18.6473C227.924 18.4916 228.037 18.2235 228.037 17.8342C228.037 17.445 227.924 17.1855 227.689 17.0385C227.454 16.8914 227.141 16.8136 226.741 16.8136H225.132V18.8809Z" fill="white"/>
<path d="M235.316 21.4581C235.394 21.4581 235.455 21.4841 235.516 21.5446C235.568 21.5965 235.603 21.6657 235.603 21.7436V22.4788C235.603 22.5567 235.577 22.6172 235.516 22.6778C235.464 22.7297 235.394 22.7643 235.316 22.7643H230.759C230.681 22.7643 230.62 22.7383 230.559 22.6778C230.507 22.6259 230.472 22.5567 230.472 22.4788V15.8099C230.472 15.732 230.498 15.6715 230.559 15.6109C230.611 15.559 230.681 15.5244 230.759 15.5244H235.238C235.316 15.5244 235.377 15.5504 235.438 15.6109C235.49 15.6628 235.525 15.732 235.525 15.8099V16.5451C235.525 16.6229 235.499 16.6835 235.438 16.744C235.386 16.7959 235.316 16.8305 235.238 16.8305H231.881V18.474H235.003C235.081 18.474 235.142 18.4999 235.203 18.5605C235.255 18.6124 235.29 18.6816 235.29 18.7594V19.4947C235.29 19.5725 235.264 19.633 235.203 19.6936C235.151 19.7455 235.081 19.7801 235.003 19.7801H231.881V21.4927H235.316V21.4581Z" fill="white"/>
<path d="M242.49 15.5244C242.569 15.5244 242.63 15.5504 242.69 15.6109C242.743 15.6628 242.777 15.732 242.777 15.8099V22.4788C242.777 22.5567 242.751 22.6172 242.69 22.6778C242.638 22.7297 242.569 22.7643 242.49 22.7643H241.647C241.569 22.7643 241.508 22.7383 241.447 22.6778C241.395 22.6259 241.36 22.5567 241.36 22.4788V19.7541H238.229V22.4788C238.229 22.5567 238.203 22.6172 238.142 22.6778C238.09 22.7297 238.02 22.7643 237.942 22.7643H237.099C237.02 22.7643 236.959 22.7383 236.899 22.6864C236.846 22.6345 236.812 22.5653 236.812 22.4875V15.8185C236.812 15.7407 236.838 15.6801 236.899 15.6196C236.951 15.5677 237.02 15.5331 237.099 15.5331H237.942C238.02 15.5331 238.081 15.559 238.142 15.6196C238.194 15.6715 238.229 15.7407 238.229 15.8185V18.474H241.36V15.8185C241.36 15.7407 241.386 15.6801 241.447 15.6196C241.499 15.5677 241.569 15.5331 241.647 15.5331H242.49V15.5244Z" fill="white"/>
<path d="M244.586 22.7472C244.508 22.7472 244.447 22.7212 244.386 22.6607C244.334 22.6088 244.299 22.5396 244.299 22.4617V15.7928C244.299 15.7149 244.325 15.6544 244.386 15.5938C244.438 15.5419 244.508 15.5073 244.586 15.5073H249.126C249.204 15.5073 249.265 15.5333 249.326 15.5938C249.378 15.6457 249.413 15.7149 249.413 15.7928V16.528C249.413 16.6058 249.387 16.6664 249.326 16.7269C249.274 16.7788 249.204 16.8134 249.126 16.8134H245.708V18.3704H247.673C248.004 18.3704 248.308 18.4223 248.578 18.5347C248.848 18.6385 249.074 18.7856 249.265 18.9759C249.456 19.1662 249.604 19.3911 249.708 19.6592C249.813 19.9274 249.874 20.2301 249.874 20.5588C249.874 20.8615 249.822 21.147 249.726 21.4065C249.63 21.6746 249.491 21.9081 249.3 22.1071C249.117 22.306 248.882 22.4617 248.613 22.5742C248.343 22.6866 248.03 22.7472 247.673 22.7472H244.595H244.586ZM245.708 21.4584H247.456C247.813 21.4584 248.065 21.3719 248.23 21.1989C248.395 21.0259 248.474 20.8096 248.474 20.5674C248.474 20.3252 248.395 20.109 248.23 19.936C248.065 19.763 247.813 19.6765 247.456 19.6765H245.708V21.4757V21.4584Z" fill="white"/>
<path d="M250.361 15.8881C250.361 15.8881 250.343 15.8275 250.343 15.7929C250.343 15.7324 250.369 15.6718 250.43 15.6113C250.482 15.5507 250.552 15.5161 250.63 15.5161H251.404C251.543 15.5161 251.639 15.5421 251.7 15.594C251.761 15.6459 251.804 15.7064 251.839 15.7756L253.535 18.9674L255.231 15.7756C255.265 15.7064 255.309 15.6459 255.37 15.594C255.431 15.5421 255.526 15.5161 255.665 15.5161H256.448C256.526 15.5161 256.587 15.5421 256.648 15.6026C256.7 15.6545 256.735 15.7237 256.735 15.8016C256.735 15.8362 256.735 15.8708 256.709 15.8967L254.178 20.6454C254.022 20.9309 253.883 21.199 253.735 21.4498C253.596 21.7007 253.439 21.9256 253.265 22.1245C253.091 22.3235 252.9 22.4705 252.674 22.583C252.448 22.6954 252.178 22.756 251.856 22.756H251.082C251.004 22.756 250.943 22.73 250.882 22.6695C250.83 22.6176 250.795 22.5484 250.795 22.4705V21.7353C250.795 21.6574 250.822 21.5969 250.882 21.5363C250.935 21.4844 251.004 21.4498 251.082 21.4498H251.674C251.9 21.4498 252.083 21.3633 252.248 21.1904C252.404 21.0174 252.587 20.7492 252.787 20.4032L250.378 15.8881H250.361Z" fill="white"/>
<path d="M260.335 15.5248C261.17 15.5248 261.823 15.7237 262.283 16.1129C262.744 16.5022 262.979 17.0817 262.979 17.8342C262.979 18.5868 262.744 19.1663 262.283 19.5728C261.823 19.9707 261.17 20.1697 260.335 20.1697H258.674V22.4705C258.674 22.5484 258.648 22.6089 258.588 22.6695C258.535 22.7214 258.466 22.756 258.387 22.756H257.544C257.466 22.756 257.405 22.73 257.344 22.6695C257.292 22.6176 257.257 22.5484 257.257 22.4705V15.8016C257.257 15.7237 257.283 15.6632 257.344 15.6026C257.396 15.5507 257.466 15.5161 257.544 15.5161H260.327L260.335 15.5248ZM258.674 18.8809H260.283C260.675 18.8809 260.988 18.803 261.231 18.6473C261.466 18.4916 261.588 18.2235 261.588 17.8342C261.588 17.445 261.475 17.1855 261.231 17.0385C260.996 16.8914 260.683 16.8136 260.283 16.8136H258.674V18.8809Z" fill="white"/>
<path d="M268.78 15.5244C268.858 15.5244 268.919 15.5504 268.98 15.6109C269.032 15.6628 269.067 15.732 269.067 15.8099V16.5451C269.067 16.6229 269.04 16.6835 268.98 16.744C268.927 16.7959 268.858 16.8305 268.78 16.8305H265.414V22.4875C265.414 22.5653 265.388 22.6259 265.327 22.6864C265.275 22.7383 265.205 22.7729 265.127 22.7729H264.284C264.205 22.7729 264.144 22.747 264.084 22.6864C264.031 22.6345 263.997 22.5653 263.997 22.4875V15.8185C263.997 15.7407 264.023 15.6801 264.084 15.6196C264.136 15.5677 264.205 15.5331 264.284 15.5331H268.771L268.78 15.5244Z" fill="white"/>
<path d="M274.024 20.4551C274.041 20.3686 274.076 20.2994 274.128 20.2561C274.189 20.2129 274.25 20.1869 274.319 20.1869H275.163C275.241 20.1869 275.311 20.2129 275.363 20.2648C275.424 20.3167 275.45 20.3859 275.441 20.4637C275.424 20.7491 275.345 21.0259 275.232 21.3114C275.119 21.5968 274.928 21.8477 274.676 22.0726C274.424 22.2975 274.111 22.4878 273.728 22.6261C273.345 22.7645 272.884 22.8424 272.345 22.8424C271.867 22.8424 271.441 22.7732 271.076 22.6348C270.71 22.4964 270.397 22.2975 270.145 22.0466C269.893 21.7958 269.693 21.493 269.545 21.147C269.406 20.7924 269.319 20.4118 269.293 19.9966C269.275 19.7371 269.275 19.443 269.275 19.1316C269.275 18.8203 269.275 18.5262 269.293 18.2667C269.319 17.8515 269.406 17.4709 269.545 17.1163C269.684 16.7616 269.884 16.4675 270.145 16.2167C270.397 15.9658 270.71 15.7669 271.076 15.6285C271.441 15.4901 271.867 15.4209 272.345 15.4209C272.884 15.4209 273.345 15.4901 273.728 15.6371C274.111 15.7842 274.424 15.9658 274.676 16.1907C274.928 16.4156 275.111 16.6751 275.232 16.9606C275.354 17.246 275.424 17.5228 275.441 17.7996C275.441 17.8861 275.424 17.9466 275.363 17.9985C275.302 18.0504 275.241 18.0764 275.163 18.0764H274.319C274.25 18.0764 274.189 18.0504 274.119 18.0072C274.05 17.9639 274.015 17.8947 274.006 17.8082C273.989 17.6698 273.937 17.5401 273.858 17.4017C273.78 17.2719 273.676 17.1508 273.545 17.0471C273.415 16.9433 273.25 16.8568 273.05 16.7962C272.85 16.727 272.615 16.7011 272.345 16.7011C272.076 16.7011 271.841 16.7443 271.641 16.8222C271.441 16.9087 271.276 17.0125 271.136 17.1509C270.997 17.2892 270.893 17.4536 270.823 17.6439C270.754 17.8342 270.71 18.0418 270.693 18.2494C270.675 18.5089 270.675 18.803 270.675 19.1143C270.675 19.4257 270.675 19.7198 270.693 19.9793C270.71 20.1956 270.754 20.4032 270.823 20.5935C270.893 20.7837 270.997 20.9481 271.136 21.0865C271.276 21.2249 271.441 21.3373 271.641 21.4152C271.841 21.5017 272.076 21.5363 272.345 21.5363C272.615 21.5363 272.85 21.5017 273.05 21.4411C273.25 21.3719 273.415 21.2941 273.554 21.1903C273.684 21.0865 273.798 20.974 273.867 20.8356C273.945 20.7059 273.989 20.5675 274.015 20.4291L274.024 20.4551Z" fill="white"/>
<path d="M282.076 22.3145C282.076 22.3145 282.129 22.3837 282.137 22.4096C282.137 22.4356 282.146 22.4615 282.146 22.4702C282.146 22.548 282.12 22.6086 282.059 22.6691C282.007 22.721 281.937 22.7556 281.859 22.7556H280.876C280.737 22.7556 280.624 22.721 280.546 22.6432C280.468 22.5653 280.415 22.5307 280.398 22.5134L277.963 19.7801V22.4788C277.963 22.5567 277.937 22.6172 277.876 22.6778C277.824 22.7297 277.754 22.7643 277.676 22.7643H276.833C276.754 22.7643 276.693 22.7383 276.633 22.6778C276.58 22.6259 276.546 22.5567 276.546 22.4788V15.8099C276.546 15.732 276.572 15.6715 276.633 15.6109C276.685 15.559 276.754 15.5244 276.833 15.5244H277.676C277.754 15.5244 277.815 15.5504 277.876 15.6109C277.928 15.6628 277.963 15.732 277.963 15.8099V18.2404L280.224 15.7666C280.285 15.6974 280.355 15.6455 280.424 15.6023C280.494 15.559 280.581 15.5417 280.694 15.5417H281.65C281.729 15.5417 281.789 15.5677 281.85 15.6282C281.903 15.6801 281.937 15.7493 281.937 15.8272C281.937 15.8791 281.92 15.931 281.876 15.9829L279.085 19.0103L282.085 22.3491L282.076 22.3145Z" fill="white"/>
<path d="M283.711 22.7472C283.633 22.7472 283.572 22.7212 283.511 22.6607C283.459 22.6088 283.424 22.5396 283.424 22.4617V15.7928C283.424 15.7149 283.45 15.6544 283.511 15.5938C283.563 15.5419 283.633 15.5073 283.711 15.5073H284.555C284.633 15.5073 284.694 15.5333 284.755 15.5938C284.807 15.6457 284.842 15.7149 284.842 15.7928V20.0484L287.746 15.7495C287.746 15.7495 287.816 15.663 287.877 15.6025C287.938 15.5419 288.033 15.5073 288.146 15.5073H288.877C288.955 15.5073 289.016 15.5333 289.077 15.5938C289.129 15.6457 289.164 15.7149 289.164 15.7928V22.4617C289.164 22.5396 289.138 22.6001 289.077 22.6607C289.025 22.7126 288.955 22.7472 288.877 22.7472H288.033C287.955 22.7472 287.894 22.7212 287.833 22.6607C287.781 22.6088 287.746 22.5396 287.746 22.4617V18.206L284.842 22.505C284.842 22.505 284.772 22.5915 284.703 22.652C284.642 22.7126 284.555 22.7472 284.433 22.7472H283.711Z" fill="white"/>
<path d="M291.503 22.7474C291.425 22.7474 291.364 22.7214 291.303 22.6609C291.251 22.609 291.216 22.5398 291.216 22.4619V15.793C291.216 15.7151 291.242 15.6546 291.303 15.594C291.355 15.5421 291.425 15.5075 291.503 15.5075H292.347C292.425 15.5075 292.486 15.5335 292.547 15.594C292.599 15.6459 292.634 15.7151 292.634 15.793V20.0486L295.538 15.7497C295.538 15.7497 295.608 15.6632 295.669 15.6027C295.73 15.5421 295.825 15.5075 295.938 15.5075H296.669C296.747 15.5075 296.808 15.5335 296.869 15.594C296.921 15.6459 296.956 15.7151 296.956 15.793V22.4619C296.956 22.5398 296.93 22.6003 296.869 22.6609C296.817 22.7128 296.747 22.7474 296.669 22.7474H295.825C295.747 22.7474 295.686 22.7214 295.625 22.6609C295.573 22.609 295.538 22.5398 295.538 22.4619V18.2062L292.634 22.5052C292.634 22.5052 292.564 22.5917 292.495 22.6522C292.434 22.7128 292.347 22.7474 292.225 22.7474H291.503ZM294.817 14.928C295.017 14.8415 295.173 14.729 295.295 14.5993C295.417 14.4609 295.495 14.3138 295.547 14.1495C295.599 13.9852 295.625 13.8208 295.625 13.6565C295.625 13.6046 295.608 13.5527 295.573 13.5181C295.538 13.4835 295.486 13.4575 295.425 13.4575H294.834C294.773 13.4575 294.721 13.4748 294.686 13.5181C294.651 13.5527 294.634 13.6046 294.634 13.6565C294.634 13.8122 294.591 13.9333 294.495 14.0284C294.399 14.1236 294.26 14.1755 294.077 14.1755C293.895 14.1755 293.747 14.1236 293.66 14.0284C293.564 13.9333 293.521 13.8122 293.521 13.6565C293.521 13.6046 293.503 13.5527 293.469 13.5181C293.434 13.4835 293.382 13.4575 293.321 13.4575H292.729C292.669 13.4575 292.616 13.4748 292.582 13.5181C292.547 13.5527 292.529 13.6046 292.529 13.6565C292.529 13.8208 292.556 13.9852 292.608 14.1495C292.66 14.3138 292.747 14.4609 292.86 14.5993C292.973 14.7377 293.138 14.8415 293.338 14.928C293.538 15.0145 293.782 15.0577 294.077 15.0577C294.373 15.0577 294.617 15.0145 294.817 14.928Z" fill="white"/>
<path d="M222.271 27.4092C222.35 27.4092 222.41 27.4351 222.471 27.4957C222.524 27.5476 222.558 27.6168 222.558 27.6946V34.3636C222.558 34.4414 222.532 34.502 222.471 34.5625C222.419 34.6144 222.35 34.649 222.271 34.649H221.428C221.349 34.649 221.289 34.6231 221.228 34.5625C221.176 34.5106 221.141 34.4414 221.141 34.3636V28.7066H218.001V34.3636C218.001 34.4414 217.975 34.502 217.914 34.5625C217.862 34.6144 217.793 34.649 217.714 34.649H216.871C216.793 34.649 216.732 34.6231 216.671 34.5625C216.619 34.5106 216.584 34.4414 216.584 34.3636V27.6946C216.584 27.6168 216.61 27.5562 216.671 27.4957C216.723 27.4438 216.793 27.4092 216.871 27.4092H222.245H222.271Z" fill="white"/>
<path d="M224.367 34.6407C224.289 34.6407 224.228 34.6148 224.167 34.5542C224.115 34.5023 224.08 34.4331 224.08 34.3553V27.6863C224.08 27.6085 224.106 27.5479 224.167 27.4874C224.219 27.4355 224.289 27.4009 224.367 27.4009H225.211C225.289 27.4009 225.35 27.4268 225.411 27.4874C225.463 27.5393 225.498 27.6085 225.498 27.6863V31.942L228.402 27.6431C228.402 27.6431 228.472 27.5566 228.533 27.496C228.594 27.4355 228.689 27.4009 228.802 27.4009H229.533C229.611 27.4009 229.672 27.4268 229.733 27.4874C229.785 27.5393 229.82 27.6085 229.82 27.6863V34.3553C229.82 34.4331 229.794 34.4937 229.733 34.5542C229.681 34.6061 229.611 34.6407 229.533 34.6407H228.689C228.611 34.6407 228.55 34.6148 228.489 34.5542C228.437 34.5023 228.402 34.4331 228.402 34.3553V30.0996L225.498 34.3985C225.498 34.3985 225.428 34.485 225.359 34.5456C225.298 34.6061 225.211 34.6407 225.089 34.6407H224.367Z" fill="white"/>
<path d="M232.159 34.6407C232.081 34.6407 232.02 34.6148 231.959 34.5542C231.907 34.5023 231.872 34.4331 231.872 34.3553V27.6863C231.872 27.6085 231.898 27.5479 231.959 27.4874C232.011 27.4355 232.081 27.4009 232.159 27.4009H235.22C235.664 27.4009 236.038 27.4701 236.333 27.5998C236.629 27.7382 236.873 27.9026 237.047 28.1015C237.22 28.3005 237.36 28.5253 237.438 28.7589C237.516 28.9924 237.56 29.2173 237.56 29.4249C237.56 29.6325 237.534 29.8142 237.473 29.9785C237.42 30.1429 237.351 30.2812 237.273 30.3937C237.194 30.5061 237.116 30.6013 237.029 30.6791C236.951 30.757 236.881 30.8089 236.838 30.8348C237.055 30.9819 237.247 31.1808 237.429 31.449C237.612 31.7171 237.699 32.0458 237.699 32.4523C237.699 32.7118 237.655 32.9713 237.551 33.2308C237.455 33.4903 237.307 33.7239 237.125 33.9314C236.942 34.139 236.707 34.3034 236.42 34.4331C236.142 34.5629 235.82 34.6234 235.446 34.6234H232.142L232.159 34.6407ZM236.16 29.5028C236.16 29.2433 236.073 29.0443 235.907 28.9059C235.742 28.7675 235.481 28.707 235.116 28.707H233.281V30.2985H235.116C235.472 30.2985 235.742 30.2294 235.907 30.0996C236.073 29.9699 236.16 29.7709 236.16 29.5028ZM233.281 33.3519H235.203C235.586 33.3519 235.864 33.2741 236.038 33.1097C236.212 32.9454 236.299 32.7378 236.299 32.4783C236.299 32.2188 236.203 32.0025 236.02 31.8382C235.838 31.6739 235.559 31.5874 235.194 31.5874H233.272V33.3519H233.281Z" fill="white"/>
<path d="M238.655 30.1082C238.681 29.7189 238.751 29.3557 238.881 29.0183C239.012 28.681 239.194 28.3782 239.447 28.1274C239.699 27.8765 240.003 27.6776 240.377 27.5306C240.751 27.3835 241.195 27.3057 241.708 27.3057C242.221 27.3057 242.656 27.3749 243.03 27.5219C243.404 27.669 243.717 27.8679 243.96 28.1187C244.212 28.3696 244.404 28.6723 244.534 29.0097C244.665 29.347 244.743 29.7103 244.76 30.1082C244.76 30.2379 244.769 30.385 244.778 30.5407C244.786 30.6964 244.778 30.8607 244.778 31.0337C244.778 31.2067 244.778 31.3624 244.778 31.5267C244.778 31.6911 244.778 31.8295 244.76 31.9592C244.743 32.3485 244.665 32.7118 244.534 33.0491C244.404 33.3864 244.212 33.6892 243.969 33.94C243.717 34.1909 243.404 34.3898 243.03 34.5369C242.656 34.6839 242.212 34.7531 241.708 34.7531C241.203 34.7531 240.751 34.6839 240.377 34.5369C240.003 34.3898 239.69 34.1909 239.447 33.94C239.194 33.6892 239.012 33.3951 238.881 33.0491C238.751 32.7118 238.681 32.3485 238.655 31.9592C238.655 31.8295 238.647 31.6824 238.638 31.5267C238.629 31.371 238.638 31.2067 238.638 31.0337C238.638 30.8607 238.638 30.705 238.638 30.5407C238.638 30.3763 238.638 30.2379 238.655 30.1082ZM243.36 30.1601C243.334 29.667 243.169 29.2778 242.882 29.0097C242.586 28.7415 242.195 28.6031 241.716 28.6031C241.238 28.6031 240.847 28.7415 240.551 29.0097C240.255 29.2778 240.099 29.667 240.064 30.1601C240.047 30.4196 240.047 30.7137 240.047 31.0337C240.047 31.3538 240.047 31.6478 240.064 31.9073C240.09 32.4004 240.255 32.781 240.551 33.0491C240.847 33.3172 241.238 33.4556 241.716 33.4556C242.195 33.4556 242.586 33.3172 242.882 33.0491C243.177 32.781 243.334 32.4004 243.36 31.9073C243.377 31.6478 243.377 31.3538 243.377 31.0337C243.377 30.7137 243.377 30.4196 243.36 30.1601Z" fill="white"/>
<path d="M246.299 34.6407C246.221 34.6407 246.16 34.6148 246.099 34.5542C246.047 34.5023 246.012 34.4331 246.012 34.3553V27.6863C246.012 27.6085 246.039 27.5479 246.099 27.4874C246.152 27.4355 246.221 27.4009 246.299 27.4009H249.361C249.804 27.4009 250.178 27.4701 250.474 27.5998C250.769 27.7296 251.013 27.9026 251.187 28.1015C251.361 28.3005 251.5 28.5253 251.578 28.7589C251.656 28.9924 251.7 29.2173 251.7 29.4249C251.7 29.6325 251.674 29.8142 251.613 29.9785C251.561 30.1429 251.491 30.2812 251.413 30.3937C251.335 30.5061 251.256 30.6013 251.169 30.6791C251.091 30.757 251.03 30.8089 250.978 30.8348C251.195 30.9819 251.387 31.1808 251.569 31.449C251.752 31.7171 251.839 32.0458 251.839 32.4523C251.839 32.7118 251.787 32.9713 251.691 33.2308C251.596 33.4903 251.456 33.7239 251.265 33.9314C251.074 34.139 250.848 34.3034 250.561 34.4331C250.282 34.5629 249.952 34.6234 249.587 34.6234H246.282L246.299 34.6407ZM250.3 29.5028C250.3 29.2433 250.213 29.0443 250.048 28.9059C249.882 28.7675 249.621 28.707 249.256 28.707H247.421V30.2985H249.256C249.613 30.2985 249.882 30.2294 250.048 30.0996C250.213 29.9612 250.3 29.7709 250.3 29.5028ZM247.421 33.3519H249.343C249.726 33.3519 250.004 33.2741 250.178 33.1097C250.352 32.9454 250.439 32.7378 250.439 32.4783C250.439 32.2188 250.343 32.0025 250.161 31.8382C249.978 31.6739 249.7 31.5874 249.334 31.5874H247.413V33.3519H247.421Z" fill="white"/>
<path d="M256.457 27.4092C256.57 27.4092 256.648 27.4351 256.709 27.4957C256.761 27.5562 256.813 27.6427 256.857 27.7552L259.405 34.2771C259.405 34.2771 259.414 34.3203 259.414 34.3463C259.414 34.4241 259.387 34.4847 259.327 34.5452C259.274 34.5971 259.205 34.6317 259.127 34.6317H258.379C258.24 34.6317 258.144 34.6058 258.092 34.5452C258.04 34.4847 257.996 34.4328 257.979 34.3722L257.535 33.2218H254.257L253.813 34.3722C253.787 34.4241 253.752 34.4847 253.7 34.5452C253.648 34.6058 253.552 34.6317 253.413 34.6317H252.665C252.587 34.6317 252.526 34.6058 252.465 34.5452C252.413 34.4933 252.378 34.4241 252.378 34.3463C252.378 34.3203 252.378 34.2944 252.387 34.2771L254.935 27.7552C254.978 27.6341 255.022 27.5476 255.083 27.4957C255.135 27.4351 255.222 27.4092 255.335 27.4092H256.474H256.457ZM257.031 31.9417L255.892 29.0007L254.752 31.9417H257.031Z" fill="white"/>
<path d="M263.214 27.4095C264.049 27.4095 264.701 27.6085 265.162 27.9977C265.623 28.387 265.858 28.9665 265.858 29.719C265.858 30.4715 265.623 31.0511 265.162 31.4576C264.701 31.8555 264.049 32.0544 263.214 32.0544H261.553V34.3553C261.553 34.4331 261.527 34.4937 261.466 34.5542C261.414 34.6061 261.344 34.6407 261.266 34.6407H260.422C260.344 34.6407 260.283 34.6148 260.222 34.5542C260.17 34.5023 260.135 34.4331 260.135 34.3553V27.6863C260.135 27.6085 260.162 27.5479 260.222 27.4874C260.275 27.4355 260.344 27.4009 260.422 27.4009H263.205L263.214 27.4095ZM261.553 30.7656H263.162C263.562 30.7656 263.875 30.6878 264.11 30.5321C264.345 30.3764 264.458 30.1083 264.458 29.719C264.458 29.3298 264.345 29.0703 264.11 28.9232C263.875 28.7762 263.562 28.6983 263.162 28.6983H261.553V30.7656Z" fill="white"/>
<path d="M271.728 33.3517C271.806 33.3517 271.867 33.3777 271.928 33.4382C271.98 33.4901 272.015 33.5593 272.015 33.6371V34.3724C272.015 34.4502 271.989 34.5108 271.928 34.5713C271.876 34.6232 271.806 34.6578 271.728 34.6578H267.171C267.092 34.6578 267.032 34.6319 266.971 34.5713C266.919 34.5194 266.884 34.4502 266.884 34.3724V27.7034C266.884 27.6256 266.91 27.565 266.971 27.5045C267.023 27.4526 267.092 27.418 267.171 27.418H271.649C271.728 27.418 271.789 27.4439 271.849 27.5045C271.902 27.5564 271.936 27.6256 271.936 27.7034V28.4386C271.936 28.5165 271.91 28.577 271.849 28.6376C271.797 28.6895 271.728 28.7241 271.649 28.7241H268.293V30.3675H271.415C271.493 30.3675 271.554 30.3935 271.615 30.454C271.667 30.5059 271.702 30.5751 271.702 30.653V31.3882C271.702 31.4661 271.675 31.5266 271.615 31.5872C271.562 31.639 271.493 31.6737 271.415 31.6737H268.293V33.3863H271.728V33.3517Z" fill="white"/>
<path d="M278.911 27.4092C278.989 27.4092 279.05 27.4351 279.111 27.4957C279.163 27.5476 279.198 27.6168 279.198 27.6946V34.3636C279.198 34.4414 279.172 34.502 279.111 34.5625C279.059 34.6144 278.989 34.649 278.911 34.649H278.067C277.989 34.649 277.928 34.6231 277.867 34.5625C277.815 34.5106 277.78 34.4414 277.78 34.3636V31.6389H274.641V34.3636C274.641 34.4414 274.615 34.502 274.554 34.5625C274.502 34.6144 274.432 34.649 274.354 34.649H273.511C273.432 34.649 273.371 34.6231 273.31 34.5712C273.258 34.5193 273.224 34.4501 273.224 34.3722V27.7033C273.224 27.6254 273.25 27.5649 273.31 27.5043C273.363 27.4524 273.432 27.4178 273.511 27.4178H274.354C274.432 27.4178 274.493 27.4438 274.554 27.5043C274.606 27.5562 274.641 27.6254 274.641 27.7033V30.3587H277.78V27.7033C277.78 27.6254 277.807 27.5649 277.867 27.5043C277.92 27.4524 277.989 27.4178 278.067 27.4178H278.911V27.4092Z" fill="white"/>
<path d="M286.381 27.4092C286.459 27.4092 286.52 27.4351 286.581 27.4957C286.633 27.5476 286.668 27.6168 286.668 27.6946V34.3636C286.668 34.4414 286.642 34.502 286.581 34.5625C286.529 34.6144 286.459 34.649 286.381 34.649H285.538C285.459 34.649 285.398 34.6231 285.338 34.5625C285.285 34.5106 285.251 34.4414 285.251 34.3636V31.6389H282.12V34.3636C282.12 34.4414 282.094 34.502 282.033 34.5625C281.981 34.6144 281.911 34.649 281.833 34.649H280.989C280.911 34.649 280.85 34.6231 280.789 34.5712C280.737 34.5193 280.702 34.4501 280.702 34.3722V27.7033C280.702 27.6254 280.728 27.5649 280.789 27.5043C280.842 27.4524 280.911 27.4178 280.989 27.4178H281.833C281.911 27.4178 281.972 27.4438 282.033 27.5043C282.085 27.5562 282.12 27.6254 282.12 27.7033V30.3587H285.251V27.7033C285.251 27.6254 285.277 27.5649 285.338 27.5043C285.39 27.4524 285.459 27.4178 285.538 27.4178H286.381V27.4092Z" fill="white"/>
<path d="M288.199 27.6946C288.199 27.6168 288.225 27.5562 288.286 27.4957C288.338 27.4438 288.407 27.4092 288.486 27.4092H289.329C289.408 27.4092 289.468 27.4351 289.529 27.4957C289.581 27.5476 289.616 27.6168 289.616 27.6946V30.2636H291.582C291.912 30.2636 292.216 30.3155 292.486 30.4279C292.756 30.5317 292.982 30.6788 293.173 30.8691C293.364 31.0594 293.512 31.2843 293.617 31.5524C293.721 31.8206 293.782 32.1233 293.782 32.452C293.782 32.7547 293.73 33.0402 293.634 33.2997C293.538 33.5678 293.399 33.8014 293.208 34.0003C293.025 34.1992 292.79 34.3549 292.521 34.4674C292.251 34.5798 291.938 34.6404 291.582 34.6404H288.503C288.425 34.6404 288.364 34.6144 288.303 34.5539C288.251 34.502 288.216 34.4328 288.216 34.3549V27.686L288.199 27.6946ZM289.599 33.3516H291.356C291.712 33.3516 291.964 33.2651 292.121 33.0921C292.277 32.9191 292.364 32.7028 292.364 32.4606C292.364 32.2184 292.286 32.0022 292.121 31.8292C291.964 31.6562 291.703 31.5697 291.356 31.5697H289.599V33.3689V33.3516ZM295.295 27.4178C295.373 27.4178 295.434 27.4438 295.495 27.5043C295.547 27.5562 295.573 27.6254 295.573 27.7033V34.3722C295.573 34.4501 295.547 34.5106 295.495 34.5712C295.443 34.6231 295.373 34.6577 295.295 34.6577H294.451C294.373 34.6577 294.312 34.6317 294.251 34.5712C294.199 34.5193 294.164 34.4501 294.164 34.3722V27.7033C294.164 27.6254 294.191 27.5649 294.251 27.5043C294.304 27.4524 294.373 27.4178 294.451 27.4178H295.295Z" fill="white"/>
<path d="M297.565 34.6404C297.487 34.6404 297.426 34.6145 297.365 34.5539C297.313 34.502 297.278 34.4328 297.278 34.355V27.686C297.278 27.6082 297.304 27.5476 297.365 27.4871C297.417 27.4352 297.487 27.4006 297.565 27.4006H298.408C298.487 27.4006 298.548 27.4265 298.608 27.4871C298.661 27.539 298.695 27.6082 298.695 27.686V31.9417L301.6 27.6428C301.6 27.6428 301.67 27.5563 301.739 27.4957C301.809 27.4352 301.887 27.4006 302.009 27.4006H302.739C302.817 27.4006 302.878 27.4265 302.939 27.4871C302.991 27.539 303.026 27.6082 303.026 27.686V34.355C303.026 34.4328 303 34.4934 302.939 34.5539C302.887 34.6058 302.817 34.6404 302.739 34.6404H301.896C301.817 34.6404 301.756 34.6145 301.696 34.5539C301.643 34.502 301.617 34.4328 301.617 34.355V30.0993L298.713 34.3982C298.713 34.3982 298.643 34.4847 298.582 34.5453C298.521 34.6058 298.426 34.6404 298.313 34.6404H297.582H297.565ZM300.878 26.821C301.078 26.7345 301.235 26.6221 301.356 26.4924C301.469 26.354 301.556 26.2069 301.609 26.0426C301.661 25.8782 301.687 25.7139 301.687 25.5495C301.687 25.4976 301.67 25.4457 301.635 25.4111C301.6 25.3765 301.548 25.3506 301.487 25.3506H300.896C300.835 25.3506 300.782 25.3679 300.748 25.4111C300.713 25.4457 300.696 25.4976 300.696 25.5495C300.696 25.7052 300.652 25.8263 300.556 25.9215C300.461 26.0166 300.322 26.0685 300.139 26.0685C299.956 26.0685 299.808 26.0166 299.722 25.9215C299.626 25.8263 299.582 25.7052 299.582 25.5495C299.582 25.4976 299.565 25.4457 299.53 25.4111C299.495 25.3765 299.443 25.3506 299.382 25.3506H298.791C298.73 25.3506 298.678 25.3679 298.643 25.4111C298.608 25.4457 298.591 25.4976 298.591 25.5495C298.591 25.7139 298.617 25.8782 298.669 26.0426C298.721 26.2069 298.808 26.354 298.921 26.4924C299.035 26.6307 299.2 26.7345 299.4 26.821C299.6 26.9075 299.843 26.9508 300.139 26.9508C300.435 26.9508 300.678 26.9075 300.878 26.821Z" fill="white"/>
<path d="M216.166 44.7347C216.166 44.6482 216.184 44.5877 216.245 44.5358C216.306 44.4839 216.375 44.4579 216.445 44.4579H217.288C217.358 44.4579 217.419 44.4839 217.462 44.5358C217.506 44.5877 217.558 44.6482 217.593 44.7261C217.723 44.9683 217.923 45.1326 218.175 45.2191C218.427 45.3056 218.732 45.3488 219.071 45.3488C219.28 45.3488 219.471 45.3315 219.662 45.3056C219.854 45.2796 220.01 45.2278 220.149 45.1586C220.288 45.0894 220.393 44.9942 220.48 44.8731C220.567 44.752 220.602 44.605 220.602 44.432C220.602 44.259 220.567 44.1119 220.48 43.9995C220.393 43.887 220.288 43.7919 220.149 43.714C220.01 43.6448 219.845 43.5843 219.662 43.5497C219.48 43.5151 219.28 43.4978 219.071 43.4978H218.149C218.071 43.4978 218.01 43.4632 217.967 43.4113C217.914 43.3594 217.897 43.2989 217.897 43.221V42.4858C217.897 42.4079 217.923 42.3474 217.967 42.2955C218.01 42.2436 218.08 42.2176 218.149 42.209H219.01C219.445 42.209 219.784 42.1398 220.028 42.0014C220.271 41.863 220.393 41.6468 220.393 41.3613C220.393 41.0499 220.271 40.8337 220.028 40.6953C219.784 40.5569 219.445 40.4963 219.027 40.4963C218.793 40.4963 218.549 40.5396 218.306 40.6261C218.053 40.7126 217.862 40.8769 217.732 41.1105C217.688 41.1883 217.645 41.2489 217.601 41.3008C217.549 41.3527 217.497 41.3786 217.427 41.3786H216.584C216.506 41.3786 216.436 41.3527 216.384 41.3008C216.323 41.2489 216.297 41.1797 216.306 41.1018C216.323 40.825 216.401 40.5742 216.54 40.3406C216.671 40.1071 216.862 39.9082 217.097 39.7352C217.332 39.5622 217.619 39.4324 217.949 39.3459C218.28 39.2508 218.636 39.2075 219.036 39.2075C219.906 39.2075 220.593 39.3978 221.08 39.7871C221.567 40.1763 221.81 40.6953 221.81 41.37C221.81 41.69 221.749 41.9581 221.628 42.1917C221.506 42.4252 221.349 42.6242 221.158 42.8058C221.41 42.9961 221.61 43.2297 221.776 43.5065C221.941 43.7832 222.019 44.0946 222.019 44.432C222.019 44.7693 221.949 45.1067 221.802 45.3834C221.654 45.6602 221.454 45.8851 221.193 46.0754C220.932 46.2571 220.628 46.4041 220.271 46.4993C219.915 46.5944 219.523 46.6463 219.088 46.6463C218.654 46.6463 218.236 46.6031 217.888 46.5079C217.54 46.4128 217.236 46.283 216.993 46.1187C216.749 45.9543 216.558 45.7467 216.419 45.5218C216.288 45.2883 216.21 45.0375 216.184 44.752L216.166 44.7347Z" fill="white"/>
<path d="M226.62 39.3027C226.733 39.3027 226.811 39.3287 226.872 39.3892C226.924 39.4498 226.976 39.5363 227.02 39.6487L229.568 46.1706C229.568 46.1706 229.576 46.2139 229.576 46.2398C229.576 46.3177 229.55 46.3782 229.489 46.4388C229.437 46.4907 229.368 46.5253 229.289 46.5253H228.541C228.402 46.5253 228.307 46.4993 228.254 46.4388C228.202 46.3782 228.159 46.3263 228.141 46.2658L227.698 45.1154H224.419L223.976 46.2658C223.95 46.3177 223.915 46.3782 223.863 46.4388C223.811 46.4993 223.715 46.5253 223.576 46.5253H222.828C222.75 46.5253 222.689 46.4993 222.628 46.4388C222.576 46.3869 222.541 46.3177 222.541 46.2398C222.541 46.2139 222.541 46.1879 222.55 46.1706L225.098 39.6487C225.141 39.5276 225.185 39.4411 225.245 39.3892C225.298 39.3287 225.385 39.3027 225.498 39.3027H226.637H226.62ZM227.193 43.8352L226.054 40.8943L224.915 43.8352H227.193Z" fill="white"/>
<path d="M230.594 46.5338C230.515 46.5338 230.455 46.5078 230.394 46.4473C230.342 46.3954 230.307 46.3262 230.307 46.2484V39.5794C230.307 39.5015 230.333 39.441 230.394 39.3804C230.446 39.3285 230.515 39.2939 230.594 39.2939H233.655C234.098 39.2939 234.472 39.3631 234.768 39.4929C235.064 39.6313 235.307 39.7956 235.481 39.9946C235.655 40.1935 235.794 40.4184 235.872 40.652C235.951 40.8855 235.994 41.1104 235.994 41.318C235.994 41.5256 235.968 41.7072 235.907 41.8716C235.855 42.0359 235.786 42.1743 235.707 42.2868C235.629 42.3992 235.551 42.4944 235.464 42.5722C235.385 42.6501 235.316 42.702 235.272 42.7279C235.49 42.8749 235.681 43.0739 235.864 43.342C236.046 43.6102 236.133 43.9389 236.133 44.3454C236.133 44.6049 236.09 44.8644 235.986 45.1239C235.89 45.3834 235.742 45.6169 235.559 45.8245C235.377 46.0321 235.142 46.1965 234.855 46.3262C234.577 46.4559 234.255 46.5165 233.881 46.5165H230.576L230.594 46.5338ZM234.594 41.3958C234.594 41.1363 234.507 40.9374 234.342 40.799C234.177 40.6606 233.916 40.6001 233.551 40.6001H231.716V42.1916H233.551C233.907 42.1916 234.177 42.1224 234.342 41.9927C234.507 41.8629 234.594 41.664 234.594 41.3958ZM231.716 45.245H233.637C234.02 45.245 234.298 45.1671 234.472 45.0028C234.646 44.8384 234.733 44.6308 234.733 44.3714C234.733 44.1119 234.638 43.8956 234.455 43.7313C234.272 43.5669 233.994 43.4804 233.629 43.4804H231.707V45.245H231.716Z" fill="white"/>
<path d="M237.099 42.0017C237.116 41.6125 237.194 41.2492 237.325 40.9119C237.455 40.5745 237.647 40.2718 237.89 40.0209C238.142 39.7701 238.447 39.5712 238.821 39.4241C239.194 39.2771 239.638 39.1992 240.151 39.1992C240.664 39.1992 241.099 39.2684 241.473 39.4155C241.847 39.5625 242.16 39.7615 242.403 40.0123C242.647 40.2631 242.847 40.5659 242.977 40.9032C243.108 41.2406 243.186 41.6038 243.204 42.0017C243.204 42.1315 243.221 42.2785 243.221 42.4342C243.221 42.5899 243.221 42.7543 243.221 42.9273C243.221 43.1003 243.221 43.256 243.221 43.4203C243.221 43.5846 243.221 43.723 243.204 43.8528C243.186 44.242 243.108 44.6053 242.977 44.9427C242.847 45.28 242.664 45.5827 242.412 45.8336C242.16 46.0844 241.847 46.2834 241.473 46.4304C241.099 46.5775 240.655 46.6467 240.151 46.6467C239.647 46.6467 239.194 46.5775 238.821 46.4304C238.447 46.2834 238.134 46.0844 237.89 45.8336C237.638 45.5827 237.455 45.2886 237.325 44.9427C237.194 44.6053 237.125 44.242 237.099 43.8528C237.099 43.723 237.09 43.576 237.081 43.4203C237.073 43.2646 237.081 43.1003 237.081 42.9273C237.081 42.7543 237.081 42.5986 237.081 42.4342C237.081 42.2699 237.081 42.1315 237.099 42.0017ZM241.803 42.0536C241.777 41.5606 241.612 41.1714 241.325 40.9032C241.029 40.6351 240.638 40.4967 240.16 40.4967C239.681 40.4967 239.281 40.6351 238.994 40.9032C238.699 41.1714 238.542 41.5606 238.516 42.0536C238.499 42.3131 238.499 42.6072 238.499 42.9273C238.499 43.2473 238.499 43.5414 238.516 43.8009C238.542 44.2939 238.707 44.6745 238.994 44.9427C239.29 45.2108 239.681 45.3492 240.16 45.3492C240.638 45.3492 241.029 45.2108 241.325 44.9427C241.621 44.6745 241.777 44.2939 241.803 43.8009C241.821 43.5414 241.829 43.2473 241.829 42.9273C241.829 42.6072 241.829 42.3131 241.803 42.0536Z" fill="white"/>
<path d="M249.987 39.3027C250.065 39.3027 250.126 39.3287 250.187 39.3892C250.239 39.4411 250.265 39.5103 250.265 39.5882V45.2451H250.604C250.682 45.2451 250.743 45.2711 250.804 45.3316C250.856 45.3835 250.891 45.4527 250.891 45.5306V47.3989C250.891 47.4768 250.865 47.5373 250.804 47.5979C250.752 47.6498 250.682 47.6843 250.604 47.6843H249.761C249.682 47.6843 249.621 47.6584 249.561 47.5979C249.508 47.546 249.474 47.4768 249.474 47.3989V46.5426H245.23V47.3989C245.23 47.4768 245.204 47.5373 245.143 47.5979C245.091 47.6498 245.021 47.6843 244.943 47.6843H244.099C244.021 47.6843 243.96 47.6584 243.899 47.5979C243.847 47.546 243.812 47.4768 243.812 47.3989V45.5306C243.812 45.4527 243.838 45.3922 243.882 45.3403C243.925 45.2884 243.995 45.2624 244.064 45.2538H244.212C244.473 45.2538 244.665 45.1586 244.786 44.9597C244.899 44.7607 244.96 44.458 244.96 44.0342V39.5968C244.96 39.519 244.986 39.4584 245.047 39.3979C245.099 39.346 245.169 39.3114 245.247 39.3114H249.961L249.987 39.3027ZM248.865 45.2365V40.5915H246.395V44.1206C246.395 44.1985 246.395 44.285 246.395 44.3888C246.395 44.4926 246.378 44.5964 246.36 44.7002C246.343 44.804 246.326 44.8991 246.291 45.0029C246.265 45.0981 246.221 45.1759 246.178 45.2365H248.865Z" fill="white"/>
<path fill-rule="evenodd" clip-rule="evenodd" d="M29.6547 0.5C46.03 0.5 59.3095 13.7082 59.3095 29.9957C59.3095 46.2832 46.03 59.4914 29.6547 59.4914C13.2794 59.4914 0 46.2832 0 29.9957C0 13.7082 13.2794 0.5 29.6547 0.5Z" fill="#E9781C"/>
<path fill-rule="evenodd" clip-rule="evenodd" d="M14.8447 15.5591H25.2978V20.3856L14.8447 30.8778V15.5591Z" fill="#FEFEFE"/>
<path fill-rule="evenodd" clip-rule="evenodd" d="M14.8274 46.6636L46.2562 15.5591C41.6732 15.5591 37.0902 15.5591 32.5159 15.5591L14.8361 33.1527C14.8361 33.9917 14.8361 45.3834 14.8274 46.655" fill="#FEFEFE"/>
<path fill-rule="evenodd" clip-rule="evenodd" d="M25.863 38.0573L31.9592 31.916L46.2126 46.6379L33.4898 46.6466L25.863 38.0573Z" fill="#FEFEFE"/>
<path d="M90.6252 45.1499C90.773 45.297 90.8687 45.4353 90.8948 45.5564C90.9209 45.6775 90.9383 45.764 90.9383 45.8246C90.9383 46.1533 90.8165 46.4387 90.573 46.6809C90.3295 46.9231 90.0425 47.0442 89.7121 47.0442H85.4161C84.816 47.0442 84.329 46.8885 83.9725 46.5685C83.6159 46.2484 83.3985 46.0668 83.3376 46.0062L72.7106 34.0955V45.8332C72.7106 46.1619 72.5889 46.4474 72.3454 46.6896C72.1019 46.9318 71.8149 47.0529 71.4844 47.0529H67.8232C67.4928 47.0529 67.2058 46.9318 66.9623 46.6896C66.7188 46.4474 66.597 46.1619 66.597 45.8332V16.7787C66.597 16.45 66.7188 16.1646 66.9623 15.9224C67.2058 15.6802 67.4928 15.5591 67.8232 15.5591H71.4844C71.8149 15.5591 72.1019 15.6802 72.3454 15.9224C72.5889 16.1646 72.7106 16.45 72.7106 16.7787V27.3487L82.5636 16.5538C82.8332 16.2511 83.1202 16.0175 83.4246 15.8359C83.729 15.6542 84.1203 15.5677 84.5986 15.5677H88.7555C89.0859 15.5677 89.3729 15.6888 89.6164 15.931C89.8599 16.1732 89.9817 16.4587 89.9817 16.7873C89.9817 17.0295 89.8947 17.2544 89.7121 17.462L77.5545 30.6356L90.6165 45.1586L90.6252 45.1499Z" fill="white"/>
<path d="M109.209 15.5677C112.853 15.5677 115.688 16.4241 117.706 18.1281C119.723 19.8407 120.732 22.3405 120.732 25.6361C120.732 28.9316 119.723 31.4487 117.706 33.1873C115.688 34.9259 112.853 35.7909 109.209 35.7909H101.974V45.8159C101.974 46.1446 101.852 46.4301 101.609 46.6723C101.365 46.9145 101.078 47.0356 100.748 47.0356H97.0867C96.7562 47.0356 96.4692 46.9145 96.2257 46.6723C95.9822 46.4301 95.8605 46.1446 95.8605 45.8159V16.7787C95.8605 16.45 95.9822 16.1646 96.2257 15.9224C96.4692 15.6802 96.7562 15.5591 97.0867 15.5591H109.201L109.209 15.5677ZM101.974 30.1772H108.983C110.705 30.1772 112.071 29.8398 113.097 29.1652C114.123 28.4905 114.636 27.3141 114.636 25.6361C114.636 23.958 114.123 22.7989 113.097 22.1502C112.071 21.5101 110.697 21.1814 108.983 21.1814H101.974V30.1772Z" fill="white"/>
<path d="M139.456 15.5679C139.934 15.5679 140.299 15.6976 140.543 15.9485C140.786 16.1993 140.995 16.5885 141.177 17.0989L152.257 45.5133C152.283 45.5998 152.3 45.7123 152.3 45.8247C152.3 46.1534 152.178 46.4389 151.935 46.6811C151.691 46.9232 151.404 47.0443 151.074 47.0443H147.821C147.221 47.0443 146.795 46.9146 146.552 46.6638C146.308 46.4129 146.143 46.1621 146.056 45.9199L144.117 40.929H129.829L127.881 45.9199C127.794 46.1621 127.628 46.4043 127.385 46.6638C127.141 46.9146 126.724 47.0443 126.115 47.0443H122.863C122.532 47.0443 122.245 46.9232 122.002 46.6811C121.758 46.4389 121.637 46.1534 121.637 45.8247C121.637 45.7036 121.654 45.5998 121.68 45.5133L132.759 17.0989C132.942 16.5885 133.151 16.208 133.394 15.9485C133.638 15.6976 133.994 15.5679 134.481 15.5679H139.456ZM141.943 35.3066L136.968 22.4963L131.994 35.3066H141.943Z" fill="white"/>
<path d="M170.693 14.6685C171.023 14.6685 171.31 14.7896 171.554 15.0317C171.797 15.2739 171.919 15.5594 171.919 15.8881V19.5729C173.641 19.6075 175.285 19.9016 176.867 20.4724C178.45 21.0433 179.85 21.8391 181.068 22.8511C182.285 23.8718 183.268 25.0914 184.007 26.5186C184.746 27.9458 185.112 29.5374 185.112 31.3106C185.112 33.0838 184.738 34.6754 184.007 36.1026C183.268 37.5298 182.285 38.7494 181.068 39.7701C179.85 40.7907 178.442 41.5865 176.867 42.1487C175.285 42.7196 173.632 43.0224 171.919 43.0483V46.7331C171.919 47.0618 171.797 47.3472 171.554 47.5894C171.31 47.8316 171.023 47.9527 170.693 47.9527H167.032C166.701 47.9527 166.414 47.8316 166.171 47.5894C165.927 47.3472 165.806 47.0618 165.806 46.7331V43.0483C164.092 43.0224 162.431 42.7196 160.831 42.1487C159.231 41.5779 157.822 40.7821 156.605 39.7701C155.387 38.7494 154.413 37.5298 153.692 36.1026C152.97 34.6754 152.604 33.0838 152.604 31.3106C152.604 29.5374 152.97 27.9458 153.692 26.5186C154.413 25.0914 155.387 23.8718 156.605 22.8511C157.822 21.8305 159.231 21.0347 160.831 20.4724C162.431 19.9016 164.084 19.6075 165.806 19.5729V15.8881C165.806 15.5594 165.927 15.2739 166.171 15.0317C166.414 14.7896 166.701 14.6685 167.032 14.6685H170.693ZM165.806 25.1866C164.475 25.2471 163.362 25.472 162.458 25.8612C161.553 26.2505 160.831 26.7349 160.283 27.3231C159.744 27.9112 159.353 28.5513 159.109 29.252C158.866 29.9526 158.744 30.6359 158.744 31.3019C158.744 31.968 158.866 32.6427 159.109 33.3519C159.353 34.0526 159.744 34.7013 160.283 35.2895C160.823 35.8777 161.553 36.3707 162.458 36.7772C163.362 37.1838 164.475 37.4 165.806 37.426V25.1952V25.1866ZM178.963 31.3019C178.963 30.6446 178.842 29.9612 178.598 29.252C178.355 28.5513 177.963 27.9026 177.424 27.3231C176.885 26.7349 176.154 26.2505 175.259 25.8612C174.354 25.472 173.241 25.2471 171.91 25.1866V37.4173C173.241 37.3914 174.354 37.1665 175.259 36.7686C176.163 36.3707 176.885 35.869 177.424 35.2808C177.963 34.6926 178.355 34.0526 178.598 33.3433C178.842 32.6427 178.963 31.9593 178.963 31.2933V31.3019Z" fill="white"/>
<path d="M209.705 15.5677C210.035 15.5677 210.322 15.6888 210.566 15.931C210.809 16.1732 210.931 16.4587 210.931 16.7873V19.9791C210.931 20.3078 210.809 20.5932 210.566 20.8354C210.322 21.0776 210.035 21.1987 209.705 21.1987H201.565V45.8419C201.565 46.1706 201.443 46.456 201.2 46.6982C200.956 46.9404 200.669 47.0615 200.339 47.0615H196.678C196.347 47.0615 196.06 46.9404 195.817 46.6982C195.573 46.456 195.452 46.1706 195.452 45.8419V21.1901H187.312C186.981 21.1901 186.694 21.069 186.451 20.8268C186.207 20.5846 186.086 20.2991 186.086 19.9705V16.7787C186.086 16.45 186.207 16.1646 186.451 15.9224C186.694 15.6802 186.981 15.5591 187.312 15.5591H209.688L209.705 15.5677Z" fill="white"/>
</g>
<defs>
<clipPath id="clip0_4_150">
<rect width="303" height="59" fill="white" transform="translate(0 0.5)"/>
</clipPath>
</defs>
</svg>
