<svg width="33" height="32" viewBox="0 0 33 32" fill="none" xmlns="http://www.w3.org/2000/svg">
<path d="M16.5 10V16" stroke="#464646" stroke-width="1.5" stroke-linecap="round" stroke-linejoin="round"/>
<path d="M21.7 19L16.5 16" stroke="#464646" stroke-width="1.5" stroke-linecap="round" stroke-linejoin="round"/>
<path d="M23.5249 12.4629H28.5249V7.46289" stroke="#464646" stroke-width="1.5" stroke-linecap="round" stroke-linejoin="round"/>
<path d="M24.275 23.775C22.737 25.3143 20.777 26.3628 18.6429 26.788C16.5089 27.2132 14.2967 26.9958 12.2862 26.1635C10.2757 25.3312 8.5572 23.9213 7.34811 22.1122C6.13902 20.3031 5.49365 18.176 5.49365 16C5.49365 13.824 6.13902 11.6969 7.34811 9.8878C8.5572 8.07866 10.2757 6.66877 12.2862 5.83647C14.2967 5.00417 16.5089 4.78686 18.6429 5.21202C20.777 5.63719 22.737 6.68573 24.275 8.22501L28.525 12.4625" stroke="#464646" stroke-width="1.5" stroke-linecap="round" stroke-linejoin="round"/>
</svg>
