<svg width="12" height="12" viewBox="0 0 12 12" fill="none" xmlns="http://www.w3.org/2000/svg">
<path d="M6 0.75C4.90636 0.751241 3.85787 1.18624 3.08455 1.95955C2.31124 2.73287 1.87624 3.78136 1.875 4.875C1.875 8.40469 5.625 11.0719 5.78438 11.1844C5.84825 11.2269 5.92327 11.2496 6 11.2496C6.07673 11.2496 6.15175 11.2269 6.21563 11.1844C6.375 11.0719 10.125 8.40469 10.125 4.875C10.1238 3.78136 9.68876 2.73287 8.91545 1.95955C8.14213 1.18624 7.09364 0.751241 6 0.75ZM6 3.375C6.29667 3.375 6.58668 3.46297 6.83335 3.6278C7.08003 3.79262 7.27229 4.02689 7.38582 4.30097C7.49935 4.57506 7.52906 4.87666 7.47118 5.16763C7.4133 5.45861 7.27044 5.72588 7.06066 5.93566C6.85088 6.14544 6.58361 6.2883 6.29264 6.34618C6.00166 6.40406 5.70006 6.37435 5.42597 6.26082C5.15189 6.14729 4.91762 5.95503 4.7528 5.70835C4.58797 5.46168 4.5 5.17167 4.5 4.875C4.5 4.47717 4.65804 4.09564 4.93934 3.81434C5.22064 3.53304 5.60218 3.375 6 3.375Z" fill="white" fill-opacity="0.5"/>
</svg>
