<svg width="17" height="17" viewBox="0 0 17 17" fill="none" xmlns="http://www.w3.org/2000/svg">
<path d="M15.4498 6.5875C15.3872 6.39061 15.2666 6.21723 15.1038 6.09009C14.9409 5.96294 14.7435 5.88797 14.5373 5.875L10.8248 5.61875L9.44978 2.15C9.3747 1.959 9.24401 1.79494 9.07464 1.67905C8.90526 1.56317 8.705 1.50079 8.49978 1.5C8.29455 1.50079 8.09429 1.56317 7.92492 1.67905C7.75555 1.79494 7.62486 1.959 7.54978 2.15L6.14978 5.6375L2.46228 5.875C2.25634 5.88881 2.05929 5.9641 1.89661 6.09112C1.73393 6.21814 1.61311 6.39106 1.54978 6.5875C1.48474 6.78695 1.48094 7.00131 1.53887 7.20294C1.5968 7.40458 1.71379 7.58423 1.87478 7.71875L4.71228 10.1187L3.86853 13.4375C3.81015 13.662 3.82066 13.8989 3.89868 14.1174C3.9767 14.3358 4.11863 14.5258 4.30603 14.6625C4.48792 14.793 4.70463 14.8664 4.92843 14.873C5.15222 14.8797 5.37292 14.8195 5.56228 14.7L8.49353 12.8438H8.50603L11.6623 14.8375C11.8242 14.9427 12.0129 14.9991 12.206 15C12.3637 14.9988 12.519 14.9614 12.6599 14.8908C12.8009 14.8201 12.9237 14.7181 13.0191 14.5926C13.1145 14.467 13.1798 14.3213 13.21 14.1666C13.2403 14.0118 13.2346 13.8522 13.1935 13.7L12.2998 10.0688L15.1248 7.71875C15.2858 7.58423 15.4028 7.40458 15.4607 7.20294C15.5186 7.00131 15.5148 6.78695 15.4498 6.5875Z" fill="#FBEC81" fill-opacity="0.92"/>
</svg>
