<svg width="0" height="0" class="hidden">
	<symbol fill="none" xmlns="http://www.w3.org/2000/svg" viewBox="0 0 32 33" id="info-thin">
		<path d="M16 28.5C22.6274 28.5 28 23.1274 28 16.5C28 9.87258 22.6274 4.5 16 4.5C9.37258 4.5 4 9.87258 4 16.5C4 23.1274 9.37258 28.5 16 28.5Z" stroke="white" stroke-linecap="round" stroke-linejoin="round"></path>
		<path d="M15 15.5H16V22.5H17" stroke="white" stroke-linecap="round" stroke-linejoin="round"></path>
		<path d="M15.75 12C16.3023 12 16.75 11.5523 16.75 11C16.75 10.4477 16.3023 10 15.75 10C15.1977 10 14.75 10.4477 14.75 11C14.75 11.5523 15.1977 12 15.75 12Z" fill="white"></path>
	</symbol>
	<symbol fill="none" xmlns="http://www.w3.org/2000/svg" viewBox="0 0 32 32" id="lightning">
		<path d="M12 30L14 20L6 17L20 2L18 12L26 15L12 30Z" stroke="#464646" stroke-width="1.5" stroke-linecap="round" stroke-linejoin="round"></path>
	</symbol>
	<symbol fill="none" xmlns="http://www.w3.org/2000/svg" viewBox="0 0 24 25" id="male">
		<path d="M9.75 21.5C13.4779 21.5 16.5 18.4779 16.5 14.75C16.5 11.0221 13.4779 8 9.75 8C6.02208 8 3 11.0221 3 14.75C3 18.4779 6.02208 21.5 9.75 21.5Z" stroke="currentColor" stroke-width="1.5" stroke-linecap="round" stroke-linejoin="round"></path>
		<path d="M14.5215 9.97812L20.2496 4.25" stroke="currentColor" stroke-width="1.5" stroke-linecap="round" stroke-linejoin="round"></path>
		<path d="M15.75 4.25H20.25V8.75" stroke="currentColor" stroke-width="1.5" stroke-linecap="round" stroke-linejoin="round"></path>
	</symbol>
	<symbol fill="none" xmlns="http://www.w3.org/2000/svg" viewBox="0 0 12 12" id="map-marker">
		<path d="M6 0.75C4.90636 0.751241 3.85787 1.18624 3.08455 1.95955C2.31124 2.73287 1.87624 3.78136 1.875 4.875C1.875 8.40469 5.625 11.0719 5.78438 11.1844C5.84825 11.2269 5.92327 11.2496 6 11.2496C6.07673 11.2496 6.15175 11.2269 6.21563 11.1844C6.375 11.0719 10.125 8.40469 10.125 4.875C10.1238 3.78136 9.68876 2.73287 8.91545 1.95955C8.14213 1.18624 7.09364 0.751241 6 0.75ZM6 3.375C6.29667 3.375 6.58668 3.46297 6.83335 3.6278C7.08003 3.79262 7.27229 4.02689 7.38582 4.30097C7.49935 4.57506 7.52906 4.87666 7.47118 5.16763C7.4133 5.45861 7.27044 5.72588 7.06066 5.93566C6.85088 6.14544 6.58361 6.2883 6.29264 6.34618C6.00166 6.40406 5.70006 6.37435 5.42597 6.26082C5.15189 6.14729 4.91762 5.95503 4.7528 5.70835C4.58797 5.46168 4.5 5.17167 4.5 4.875C4.5 4.47717 4.65804 4.09564 4.93934 3.81434C5.22064 3.53304 5.60218 3.375 6 3.375Z" fill="white" fill-opacity="0.5"></path>
	</symbol>
	<symbol fill="none" xmlns="http://www.w3.org/2000/svg" viewBox="0 0 16 16" id="pencil">
		<path d="M5.79375 13.4999H3C2.86739 13.4999 2.74022 13.4473 2.64645 13.3535C2.55268 13.2597 2.5 13.1326 2.5 12.9999V10.2062C2.49978 10.1413 2.51236 10.0769 2.53702 10.0169C2.56169 9.95682 2.59796 9.90222 2.64375 9.85619L10.1438 2.3562C10.1903 2.30895 10.2457 2.27144 10.3069 2.24583C10.3681 2.22022 10.4337 2.20703 10.5 2.20703C10.5663 2.20703 10.632 2.22022 10.6931 2.24583C10.7543 2.27144 10.8097 2.30895 10.8563 2.3562L13.6438 5.1437C13.691 5.19022 13.7285 5.24568 13.7541 5.30684C13.7797 5.368 13.7929 5.43364 13.7929 5.49995C13.7929 5.56625 13.7797 5.63189 13.7541 5.69305C13.7285 5.75421 13.691 5.80967 13.6438 5.85619L6.14375 13.3562C6.09773 13.402 6.04313 13.4383 5.98307 13.4629C5.92301 13.4876 5.85868 13.5002 5.79375 13.4999V13.4999Z" stroke="currentColor" stroke-width="1.5" stroke-linecap="round" stroke-linejoin="round"></path>
		<path d="M8.5 4L12 7.5" stroke="currentColor" stroke-width="1.5" stroke-linecap="round" stroke-linejoin="round"></path>
	</symbol>
	<symbol fill="none" xmlns="http://www.w3.org/2000/svg" viewBox="0 0 20 21" id="phone">
		<path d="M12.4531 3.625C13.5132 3.90951 14.4799 4.46785 15.256 5.24399C16.0321 6.02013 16.5905 6.98676 16.875 8.04687" stroke="white" stroke-opacity="0.8" stroke-width="1.5" stroke-linecap="round" stroke-linejoin="round"></path>
		<path d="M11.8047 6.03906C12.4423 6.2084 13.0238 6.54327 13.4903 7.00974C13.9567 7.47622 14.2916 8.05772 14.4609 8.69531" stroke="white" stroke-opacity="0.8" stroke-width="1.5" stroke-linecap="round" stroke-linejoin="round"></path>
		<path d="M7.22656 10.2501C7.8697 11.5783 8.94366 12.6495 10.2734 13.2892C10.3715 13.3357 10.48 13.3558 10.5882 13.3475C10.6965 13.3393 10.8007 13.3031 10.8906 13.2423L12.8437 11.9376C12.93 11.8791 13.0298 11.8434 13.1336 11.8338C13.2374 11.8243 13.342 11.8412 13.4375 11.883L17.0938 13.4533C17.2187 13.5053 17.3231 13.5969 17.3909 13.7141C17.4586 13.8313 17.486 13.9675 17.4688 14.1017C17.3529 15.0062 16.9114 15.8375 16.2269 16.44C15.5424 17.0425 14.6619 17.3749 13.75 17.3751C10.9321 17.3751 8.22956 16.2557 6.23699 14.2632C4.24442 12.2706 3.125 9.56807 3.125 6.75015C3.12521 5.83827 3.45767 4.95771 4.06018 4.27324C4.66269 3.58877 5.49395 3.14728 6.39844 3.0314C6.53269 3.01415 6.66888 3.04152 6.78605 3.10928C6.90322 3.17704 6.99487 3.28144 7.04687 3.4064L8.61719 7.07046C8.65802 7.16448 8.67511 7.2671 8.66693 7.36928C8.65876 7.47146 8.62558 7.57006 8.57031 7.6564L7.26562 9.64077C7.20754 9.73052 7.17345 9.83368 7.16661 9.94037C7.15977 10.0471 7.18041 10.1537 7.22656 10.2501V10.2501Z" stroke="white" stroke-opacity="0.8" stroke-width="1.5" stroke-linecap="round" stroke-linejoin="round"></path>
	</symbol>
	<symbol fill="none" xmlns="http://www.w3.org/2000/svg" viewBox="0 0 16 16" id="plus">
		<path d="M2.5 8H13.5" stroke="white" stroke-linecap="round" stroke-linejoin="round"></path>
		<path d="M8 2.5V13.5" stroke="white" stroke-linecap="round" stroke-linejoin="round"></path>
	</symbol>
	<symbol fill="none" xmlns="http://www.w3.org/2000/svg" viewBox="0 0 16 16" id="refresh">
		<path d="M11.0127 6.23145H14.0127V3.23145" stroke="currentColor" stroke-width="1.5" stroke-linecap="round" stroke-linejoin="round"></path>
		<path d="M4.1123 4.1124C4.62255 3.60141 5.22853 3.19603 5.89559 2.91944C6.56264 2.64285 7.27768 2.50049 7.9998 2.50049C8.72193 2.50049 9.43697 2.64285 10.104 2.91944C10.7711 3.19603 11.3771 3.60141 11.8873 4.1124L14.0123 6.23115" stroke="currentColor" stroke-width="1.5" stroke-linecap="round" stroke-linejoin="round"></path>
		<path d="M4.9873 9.76855H1.9873V12.7686" stroke="currentColor" stroke-width="1.5" stroke-linecap="round" stroke-linejoin="round"></path>
		<path d="M11.8873 11.8873C11.3771 12.3983 10.7711 12.8037 10.104 13.0803C9.43697 13.3569 8.72193 13.4992 7.9998 13.4992C7.27768 13.4992 6.56264 13.3569 5.89559 13.0803C5.22853 12.8037 4.62255 12.3983 4.1123 11.8873L1.9873 9.76855" stroke="currentColor" stroke-width="1.5" stroke-linecap="round" stroke-linejoin="round"></path>
	</symbol>
	<symbol fill="none" xmlns="http://www.w3.org/2000/svg" viewBox="0 0 32 33" id="slider-arrow">
		<path d="M27 16.5L5 16.5" stroke="#FF7422" stroke-linecap="round" stroke-linejoin="round"></path>
		<path d="M14 25.5L5 16.5L14 7.5" stroke="#FF7422" stroke-linecap="round" stroke-linejoin="round"></path>
	</symbol>
	<symbol fill="none" xmlns="http://www.w3.org/2000/svg" viewBox="0 0 17 17" id="star">
		<path d="M15.4498 6.5875C15.3872 6.39061 15.2666 6.21723 15.1038 6.09009C14.9409 5.96294 14.7435 5.88797 14.5373 5.875L10.8248 5.61875L9.44978 2.15C9.3747 1.959 9.24401 1.79494 9.07464 1.67905C8.90526 1.56317 8.705 1.50079 8.49978 1.5C8.29455 1.50079 8.09429 1.56317 7.92492 1.67905C7.75555 1.79494 7.62486 1.959 7.54978 2.15L6.14978 5.6375L2.46228 5.875C2.25634 5.88881 2.05929 5.9641 1.89661 6.09112C1.73393 6.21814 1.61311 6.39106 1.54978 6.5875C1.48474 6.78695 1.48094 7.00131 1.53887 7.20294C1.5968 7.40458 1.71379 7.58423 1.87478 7.71875L4.71228 10.1187L3.86853 13.4375C3.81015 13.662 3.82066 13.8989 3.89868 14.1174C3.9767 14.3358 4.11863 14.5258 4.30603 14.6625C4.48792 14.793 4.70463 14.8664 4.92843 14.873C5.15222 14.8797 5.37292 14.8195 5.56228 14.7L8.49353 12.8438H8.50603L11.6623 14.8375C11.8242 14.9427 12.0129 14.9991 12.206 15C12.3637 14.9988 12.519 14.9614 12.6599 14.8908C12.8009 14.8201 12.9237 14.7181 13.0191 14.5926C13.1145 14.467 13.1798 14.3213 13.21 14.1666C13.2403 14.0118 13.2346 13.8522 13.1935 13.7L12.2998 10.0688L15.1248 7.71875C15.2858 7.58423 15.4028 7.40458 15.4607 7.20294C15.5186 7.00131 15.5148 6.78695 15.4498 6.5875Z" fill="#FBEC81" fill-opacity="0.92"></path>
	</symbol>
	<symbol fill="none" xmlns="http://www.w3.org/2000/svg" viewBox="0 0 40 24" id="steps-arrow">
		<path d="M39.3942 13.0607C39.9799 12.4749 39.9799 11.5251 39.3942 10.9393L29.8482 1.3934C29.2624 0.807611 28.3127 0.807611 27.7269 1.3934C27.1411 1.97919 27.1411 2.92893 27.7269 3.51472L36.2122 12L27.7269 20.4853C27.1411 21.0711 27.1411 22.0208 27.7269 22.6066C28.3127 23.1924 29.2624 23.1924 29.8482 22.6066L39.3942 13.0607ZM-1.6665 13.5H38.3335V10.5H-1.6665V13.5Z" fill="#FF7422"></path>
	</symbol>
	<symbol fill="none" xmlns="http://www.w3.org/2000/svg" viewBox="0 0 64 65" id="success">
		<path d="M43 26.5L28.325 40.5L21 33.5" stroke="#40FD48" stroke-width="1.5" stroke-linecap="round" stroke-linejoin="round"></path>
		<path d="M32 56.5C45.2548 56.5 56 45.7548 56 32.5C56 19.2452 45.2548 8.5 32 8.5C18.7452 8.5 8 19.2452 8 32.5C8 45.7548 18.7452 56.5 32 56.5Z" stroke="#40FD48" stroke-width="1.5" stroke-linecap="round" stroke-linejoin="round"></path>
	</symbol>
	<symbol fill="none" xmlns="http://www.w3.org/2000/svg" viewBox="0 0 32 32" id="target">
		<path d="M16 16L28 4" stroke="#464646" stroke-width="1.5" stroke-linecap="round" stroke-linejoin="round"></path>
		<path d="M24.4875 7.51236C22.3601 5.37855 19.5091 4.12118 16.4989 3.98911C13.4887 3.85703 10.5385 4.85989 8.2324 6.79917C5.92628 8.73846 4.43225 11.4729 4.04601 14.4611C3.65978 17.4494 4.40948 20.4738 6.14675 22.9357C7.88401 25.3976 10.4822 27.1176 13.4271 27.7552C16.372 28.3928 19.449 27.9017 22.049 26.3789C24.649 24.8561 26.5826 22.4127 27.4671 19.5323C28.3516 16.6519 28.1224 13.5444 26.825 10.8249" stroke="#464646" stroke-width="1.5" stroke-linecap="round" stroke-linejoin="round"></path>
		<path d="M20.2373 11.7624C19.2464 10.7742 17.9406 10.1644 16.5467 10.0388C15.1529 9.91324 13.7591 10.2799 12.6075 11.075C11.4559 11.8702 10.6191 13.0436 10.2427 14.3915C9.86622 15.7394 9.9738 17.1766 10.5467 18.4534C11.1197 19.7302 12.1217 20.766 13.3789 21.3809C14.6361 21.9957 16.0689 22.1507 17.4285 21.8191C18.7881 21.4874 19.9886 20.6899 20.8214 19.5652C21.6542 18.4405 22.0667 17.0596 21.9873 15.6624" stroke="#464646" stroke-width="1.5" stroke-linecap="round" stroke-linejoin="round"></path>
	</symbol>
	<symbol fill="none" xmlns="http://www.w3.org/2000/svg" viewBox="0 0 25 24" id="thumbs-up">
		<path d="M3.5 9.75H8V19.5H3.5C3.30109 19.5 3.11032 19.421 2.96967 19.2803C2.82902 19.1397 2.75 18.9489 2.75 18.75V10.5C2.75 10.3011 2.82902 10.1103 2.96967 9.96967C3.11032 9.82902 3.30109 9.75 3.5 9.75V9.75Z" stroke="#40FD48" stroke-width="1.5" stroke-linecap="round" stroke-linejoin="round"></path>
		<path d="M8 9.75L11.75 2.25C12.5456 2.25 13.3087 2.56607 13.8713 3.12868C14.4339 3.69129 14.75 4.45435 14.75 5.25V7.5H20.5531C20.7658 7.49947 20.9762 7.54447 21.17 7.63197C21.3639 7.71946 21.5368 7.84743 21.6771 8.00728C21.8174 8.16712 21.9219 8.35514 21.9835 8.55871C22.0451 8.76228 22.0625 8.97667 22.0344 9.1875L20.9094 18.1875C20.8639 18.5488 20.6885 18.8812 20.4159 19.1227C20.1434 19.3642 19.7923 19.4983 19.4281 19.5H8" stroke="#40FD48" stroke-width="1.5" stroke-linecap="round" stroke-linejoin="round"></path>
	</symbol>
	<symbol fill="none" xmlns="http://www.w3.org/2000/svg" viewBox="0 0 24 24" id="user-icon">
		<path d="M12 21C16.9706 21 21 16.9706 21 12C21 7.02944 16.9706 3 12 3C7.02944 3 3 7.02944 3 12C3 16.9706 7.02944 21 12 21Z" stroke="currentColor" stroke-linecap="round" stroke-linejoin="round"></path>
		<path d="M12 15C14.0711 15 15.75 13.3211 15.75 11.25C15.75 9.17893 14.0711 7.5 12 7.5C9.92893 7.5 8.25 9.17893 8.25 11.25C8.25 13.3211 9.92893 15 12 15Z" stroke="currentColor" stroke-linecap="round" stroke-linejoin="round"></path>
		<path d="M5.98126 18.6938C6.54555 17.5824 7.4066 16.6488 8.46896 15.9968C9.53132 15.3447 10.7535 14.9995 12 14.9995C13.2465 14.9995 14.4687 15.3447 15.5311 15.9968C16.5934 16.6488 17.4545 17.5824 18.0188 18.6938" stroke="currentColor" stroke-linecap="round" stroke-linejoin="round"></path>
	</symbol>
	<symbol fill="none" xmlns="http://www.w3.org/2000/svg" viewBox="0 0 156 40" id="waves">
		<path fill-rule="evenodd" clip-rule="evenodd" d="M155.793 0.00235051C153.69 0.0375907 151.612 0.468763 149.668 1.27417C147.637 2.11538 145.792 3.34835 144.237 4.9027C142.683 6.45705 141.45 8.30233 140.609 10.3332C140.523 10.5411 140.441 10.7506 140.363 10.9614C140.286 10.7506 140.204 10.5411 140.118 10.3332C139.277 8.30233 138.044 6.45705 136.489 4.9027C134.935 3.34835 133.09 2.11538 131.059 1.27417C129.028 0.432963 126.851 0 124.653 0C122.455 0 120.278 0.432964 118.247 1.27417C116.217 2.11538 114.371 3.34835 112.817 4.9027C111.263 6.45705 110.03 8.30233 109.188 10.3332C109.136 10.4593 109.086 10.586 109.036 10.7132C108.987 10.586 108.937 10.4593 108.884 10.3332C108.043 8.30233 106.81 6.45705 105.256 4.9027C103.702 3.34835 101.856 2.11538 99.8254 1.27417C97.7946 0.432963 95.6179 0 93.4197 0C91.2216 0 89.0449 0.432964 87.014 1.27417C84.9832 2.11538 83.1379 3.34835 81.5836 4.9027C80.0292 6.45705 78.7962 8.30233 77.955 10.3332C77.8689 10.5411 77.787 10.7506 77.7095 10.9614C77.632 10.7506 77.5501 10.5411 77.464 10.3332C76.6228 8.30233 75.3898 6.45705 73.8354 4.9027C72.2811 3.34835 70.4358 2.11538 68.405 1.27417C66.3741 0.432963 64.1975 0 61.9993 0C59.8011 0 57.6244 0.432964 55.5936 1.27417C53.5627 2.11538 51.7175 3.34835 50.1631 4.9027C48.6088 6.45705 47.3758 8.30233 46.5346 10.3332C46.4823 10.4593 46.4317 10.586 46.3826 10.7132C46.3335 10.586 46.2828 10.4593 46.2306 10.3332C45.3894 8.30233 44.1564 6.45705 42.602 4.9027C41.0477 3.34835 39.2024 2.11538 37.1716 1.27417C35.1407 0.432963 32.964 0 30.7659 0C28.5677 0 26.391 0.432964 24.3602 1.27417C22.3293 2.11538 20.484 3.34835 18.9297 4.9027C17.3753 6.45705 16.1424 8.30233 15.3012 10.3332C15.215 10.5411 15.1332 10.7506 15.0556 10.9614C14.9781 10.7506 14.8962 10.5411 14.8101 10.3332C13.9689 8.30233 12.7359 6.45705 11.1816 4.9027C9.62724 3.34835 7.78196 2.11538 5.75111 1.27417C3.92207 0.51656 1.97477 0.0900845 0 0.0128032V2.45044C7.57497 2.83808 13.6039 9.07897 13.6526 16.7389L16.2716 16.7389C16.3219 8.82843 22.7501 2.43134 30.6724 2.43134C38.5946 2.43134 45.0228 8.82843 45.0731 16.7389H47.5047L47.505 16.7389C47.5553 8.82843 53.9835 2.43134 61.9058 2.43134C69.828 2.43134 76.2562 8.82843 76.3065 16.7389L78.9255 16.7389C78.9758 8.82843 85.4039 2.43134 93.3262 2.43134C101.249 2.43134 107.677 8.82843 107.727 16.7389H110.159L110.159 16.7389C110.209 8.82843 116.637 2.43134 124.56 2.43134C132.482 2.43134 138.91 8.82843 138.96 16.7389L141.579 16.7389C141.629 8.89077 147.957 2.53225 155.793 2.43253V0.00235051ZM155.793 22.6324C153.69 22.6676 151.612 23.0988 149.668 23.9042C147.637 24.7454 145.792 25.9784 144.238 27.5327C142.683 29.0871 141.45 30.9324 140.609 32.9632C140.523 33.1711 140.441 33.3806 140.363 33.5915C140.286 33.3806 140.204 33.1711 140.118 32.9632C139.277 30.9324 138.044 29.0871 136.489 27.5327C134.935 25.9784 133.09 24.7454 131.059 23.9042C129.028 23.063 126.851 22.63 124.653 22.63C122.455 22.63 120.278 23.063 118.248 23.9042C116.217 24.7454 114.371 25.9784 112.817 27.5327C111.263 29.0871 110.03 30.9324 109.189 32.9632C109.136 33.0893 109.086 33.216 109.037 33.3433C108.987 33.216 108.937 33.0893 108.885 32.9632C108.043 30.9324 106.81 29.0871 105.256 27.5327C103.702 25.9784 101.856 24.7454 99.8255 23.9042C97.7947 23.063 95.618 22.63 93.4198 22.63C91.2216 22.63 89.045 23.063 87.0141 23.9042C84.9833 24.7454 83.138 25.9784 81.5836 27.5327C80.0293 29.0871 78.7963 30.9324 77.9551 32.9632C77.869 33.1711 77.7871 33.3806 77.7096 33.5915C77.632 33.3806 77.5502 33.1711 77.4641 32.9632C76.6229 30.9324 75.3899 29.0871 73.8355 27.5327C72.2812 25.9784 70.4359 24.7454 68.4051 23.9042C66.3742 23.063 64.1976 22.63 61.9994 22.63C59.8012 22.63 57.6245 23.063 55.5937 23.9042C53.5628 24.7454 51.7176 25.9784 50.1632 27.5327C48.6089 29.0871 47.3759 30.9324 46.5347 32.9632C46.4824 33.0893 46.4318 33.216 46.3827 33.3433C46.3336 33.216 46.2829 33.0893 46.2307 32.9632C45.3894 30.9324 44.1565 29.0871 42.6021 27.5327C41.0478 25.9784 39.2025 24.7454 37.1716 23.9042C35.1408 23.063 32.9641 22.63 30.766 22.63C28.5678 22.63 26.3911 23.063 24.3603 23.9042C22.3294 24.7454 20.4841 25.9784 18.9298 27.5327C17.3754 29.0871 16.1425 30.9324 15.3013 32.9632C15.2151 33.1711 15.1333 33.3806 15.0557 33.5915C14.9782 33.3806 14.8963 33.1711 14.8102 32.9632C13.969 30.9324 12.736 29.0871 11.1817 27.5327C9.62733 25.9784 7.78205 24.7454 5.7512 23.9042C3.92214 23.1466 1.97481 22.7201 0 22.6428V25.0805C7.57502 25.4681 13.604 31.709 13.6527 39.3689H16.2717C16.322 31.4585 22.7502 25.0614 30.6724 25.0614C38.5947 25.0614 45.0229 31.4585 45.0732 39.3689H47.5048H47.5051C47.5554 31.4585 53.9836 25.0614 61.9059 25.0614C69.8281 25.0614 76.2563 31.4585 76.3066 39.3689H78.9256C78.9759 31.4585 85.404 25.0614 93.3263 25.0614C101.249 25.0614 107.677 31.4585 107.727 39.3689H110.159H110.159C110.209 31.4585 116.637 25.0614 124.56 25.0614C132.482 25.0614 138.91 31.4585 138.96 39.3689H141.579C141.629 31.5208 147.957 25.1623 155.793 25.0626V22.6324Z" fill="currentColor"></path>
	</symbol>
	<symbol fill="none" xmlns="http://www.w3.org/2000/svg" viewBox="0 0 24 25" id="yandex">
		<g id="Yandex (Яндекс)" clip-path="url(#clip0_46_10139)">
			<g id="Yandex (Яндекс)_2">
				<rect id="Rectangle" y="0.5" width="24" height="24" rx="12" fill="#FF0000"></rect>
				<path id="Vector" d="M14.9586 4.5H12.5343C10.1521 4.5 8.13195 6.3132 8.13195 9.83356C8.13195 11.9454 9.1103 13.5025 10.8539 14.2706L7.60026 20.1588C7.49377 20.351 7.60026 20.5 7.77031 20.5H9.28027C9.40785 20.5 9.49325 20.4575 9.53572 20.351L12.4917 14.5694H13.5551V20.351C13.5551 20.4146 13.6186 20.5 13.7037 20.5H15.0225C15.1501 20.5 15.1925 20.4361 15.1925 20.33V4.71328C15.1926 4.56394 15.1077 4.5 14.9586 4.5ZM13.555 13.2042H12.6618C11.2584 13.2042 9.89744 12.1802 9.89744 9.6202C9.89744 6.95312 11.1733 5.86525 12.4703 5.86525H13.5551V13.2042H13.555Z" fill="white"></path>
			</g>
		</g>
		<defs>
			<clipPath id="clip0_46_10139">
				<rect width="24" height="24" fill="white" transform="translate(0 0.5)"></rect>
			</clipPath>
		</defs>
	</symbol>
	<symbol fill="none" xmlns="http://www.w3.org/2000/svg" viewBox="0 0 24 24" id="arrow-back">
		<path d="M20.25 12L3.75 12" stroke="white" stroke-linecap="round" stroke-linejoin="round"></path>
		<path d="M10.5 18.75L3.75 12L10.5 5.25" stroke="white" stroke-linecap="round" stroke-linejoin="round"></path>
	</symbol>
	<symbol fill="none" xmlns="http://www.w3.org/2000/svg" viewBox="0 0 24 24" id="burger">
		<path d="M3.75 12H20.25" stroke="white" stroke-linecap="round" stroke-linejoin="round"></path>
		<path d="M3.75 6H20.25" stroke="white" stroke-linecap="round" stroke-linejoin="round"></path>
		<path d="M3.75 18H20.25" stroke="white" stroke-linecap="round" stroke-linejoin="round"></path>
	</symbol>
	<symbol fill="none" xmlns="http://www.w3.org/2000/svg" viewBox="0 0 20 20" id="button-arrow">
		<path d="M3.125 10H16.875" stroke="white" stroke-width="1.5" stroke-linecap="round" stroke-linejoin="round"></path>
		<path d="M11.25 4.375L16.875 10L11.25 15.625" stroke="white" stroke-width="1.5" stroke-linecap="round" stroke-linejoin="round"></path>
	</symbol>
	<symbol fill="none" xmlns="http://www.w3.org/2000/svg" viewBox="0 0 24 25" id="calendar">
		<path d="M19.5 4.25H4.5C4.08579 4.25 3.75 4.58579 3.75 5V20C3.75 20.4142 4.08579 20.75 4.5 20.75H19.5C19.9142 20.75 20.25 20.4142 20.25 20V5C20.25 4.58579 19.9142 4.25 19.5 4.25Z" stroke="#FF7422" stroke-width="1.5" stroke-linecap="round" stroke-linejoin="round"></path>
		<path d="M16.5 2.75V5.75" stroke="#FF7422" stroke-width="1.5" stroke-linecap="round" stroke-linejoin="round"></path>
		<path d="M7.5 2.75V5.75" stroke="#FF7422" stroke-width="1.5" stroke-linecap="round" stroke-linejoin="round"></path>
		<path d="M3.75 8.75H20.25" stroke="#FF7422" stroke-width="1.5" stroke-linecap="round" stroke-linejoin="round"></path>
	</symbol>
	<symbol fill="none" xmlns="http://www.w3.org/2000/svg" viewBox="0 0 24 25" id="chevron-right">
		<path d="M9 5L16.5 12.5L9 20" stroke="#FF7422" stroke-width="2" stroke-linecap="round" stroke-linejoin="round"></path>
	</symbol>
	<symbol fill="none" xmlns="http://www.w3.org/2000/svg" viewBox="0 0 33 32" id="clock">
		<path d="M16.5 10V16" stroke="#464646" stroke-width="1.5" stroke-linecap="round" stroke-linejoin="round"></path>
		<path d="M21.7 19L16.5 16" stroke="#464646" stroke-width="1.5" stroke-linecap="round" stroke-linejoin="round"></path>
		<path d="M23.5249 12.4629H28.5249V7.46289" stroke="#464646" stroke-width="1.5" stroke-linecap="round" stroke-linejoin="round"></path>
		<path d="M24.275 23.775C22.737 25.3143 20.777 26.3628 18.6429 26.788C16.5089 27.2132 14.2967 26.9958 12.2862 26.1635C10.2757 25.3312 8.5572 23.9213 7.34811 22.1122C6.13902 20.3031 5.49365 18.176 5.49365 16C5.49365 13.824 6.13902 11.6969 7.34811 9.8878C8.5572 8.07866 10.2757 6.66877 12.2862 5.83647C14.2967 5.00417 16.5089 4.78686 18.6429 5.21202C20.777 5.63719 22.737 6.68573 24.275 8.22501L28.525 12.4625" stroke="#464646" stroke-width="1.5" stroke-linecap="round" stroke-linejoin="round"></path>
	</symbol>
	<symbol fill="none" xmlns="http://www.w3.org/2000/svg" viewBox="0 0 24 24" id="close">
		<path d="M18.75 5.25L5.25 18.75" stroke="currentColor" stroke-width="1.5" stroke-linecap="round" stroke-linejoin="round"></path>
		<path d="M18.75 18.75L5.25 5.25" stroke="currentColor" stroke-width="1.5" stroke-linecap="round" stroke-linejoin="round"></path>
	</symbol>
	<symbol fill="none" xmlns="http://www.w3.org/2000/svg" viewBox="0 0 186 56" id="dashes">
		<path d="M7.60377 1.75C7.60377 0.783502 8.38939 0 9.35849 0H35.0943C36.0634 0 36.8491 0.783502 36.8491 1.75C36.8491 2.7165 36.0634 3.5 35.0943 3.5H9.35849C8.38939 3.5 7.60377 2.7165 7.60377 1.75Z" fill="currentColor"></path>
		<path d="M7.60377 19.25C7.60377 18.2835 8.38939 17.5 9.35849 17.5H35.0943C36.0634 17.5 36.8491 18.2835 36.8491 19.25C36.8491 20.2165 36.0634 21 35.0943 21H9.35849C8.38939 21 7.60377 20.2165 7.60377 19.25Z" fill="currentColor"></path>
		<path d="M9.35849 35C8.38939 35 7.60377 35.7835 7.60377 36.75C7.60377 37.7165 8.38939 38.5 9.35849 38.5H35.0943C36.0634 38.5 36.8491 37.7165 36.8491 36.75C36.8491 35.7835 36.0634 35 35.0943 35H9.35849Z" fill="currentColor"></path>
		<path d="M7.60377 54.25C7.60377 53.2835 8.38939 52.5 9.35849 52.5H35.0943C36.0634 52.5 36.8491 53.2835 36.8491 54.25C36.8491 55.2165 36.0634 56 35.0943 56H9.35849C8.38939 56 7.60377 55.2165 7.60377 54.25Z" fill="currentColor"></path>
		<path d="M32.7547 8.75C31.7856 8.75 31 9.5335 31 10.5C31 11.4665 31.7856 12.25 32.7547 12.25H58.4906C59.4597 12.25 60.2453 11.4665 60.2453 10.5C60.2453 9.5335 59.4597 8.75 58.4906 8.75H32.7547Z" fill="currentColor"></path>
		<path d="M31 28C31 27.0335 31.7856 26.25 32.7547 26.25H58.4906C59.4597 26.25 60.2453 27.0335 60.2453 28C60.2453 28.9665 59.4597 29.75 58.4906 29.75H32.7547C31.7856 29.75 31 28.9665 31 28Z" fill="currentColor"></path>
		<path d="M32.7547 43.75C31.7856 43.75 31 44.5335 31 45.5C31 46.4665 31.7856 47.25 32.7547 47.25H58.4906C59.4597 47.25 60.2453 46.4665 60.2453 45.5C60.2453 44.5335 59.4597 43.75 58.4906 43.75H32.7547Z" fill="currentColor"></path>
		<path d="M0 10.5C0 9.5335 0.785613 8.75 1.75472 8.75H11.6981C12.6672 8.75 13.4528 9.5335 13.4528 10.5C13.4528 11.4665 12.6672 12.25 11.6981 12.25H1.75472C0.785613 12.25 0 11.4665 0 10.5Z" fill="currentColor"></path>
		<path d="M1.75472 26.25C0.785613 26.25 0 27.0335 0 28C0 28.9665 0.785613 29.75 1.75472 29.75H11.6981C12.6672 29.75 13.4528 28.9665 13.4528 28C13.4528 27.0335 12.6672 26.25 11.6981 26.25H1.75472Z" fill="currentColor"></path>
		<path d="M0 45.5C0 44.5335 0.785613 43.75 1.75472 43.75H11.6981C12.6672 43.75 13.4528 44.5335 13.4528 45.5C13.4528 46.4665 12.6672 47.25 11.6981 47.25H1.75472C0.785613 47.25 0 46.4665 0 45.5Z" fill="currentColor"></path>
		<path d="M56.1509 0C55.1818 0 54.3962 0.783502 54.3962 1.75C54.3962 2.7165 55.1818 3.5 56.1509 3.5H81.8868C82.8559 3.5 83.6415 2.7165 83.6415 1.75C83.6415 0.783502 82.8559 0 81.8868 0H56.1509Z" fill="currentColor"></path>
		<path d="M54.3962 19.25C54.3962 18.2835 55.1818 17.5 56.1509 17.5H81.8868C82.8559 17.5 83.6415 18.2835 83.6415 19.25C83.6415 20.2165 82.8559 21 81.8868 21H56.1509C55.1818 21 54.3962 20.2165 54.3962 19.25Z" fill="currentColor"></path>
		<path d="M56.1509 35C55.1818 35 54.3962 35.7835 54.3962 36.75C54.3962 37.7165 55.1818 38.5 56.1509 38.5H81.8868C82.8559 38.5 83.6415 37.7165 83.6415 36.75C83.6415 35.7835 82.8559 35 81.8868 35H56.1509Z" fill="currentColor"></path>
		<path d="M54.3962 54.25C54.3962 53.2835 55.1818 52.5 56.1509 52.5H81.8868C82.8559 52.5 83.6415 53.2835 83.6415 54.25C83.6415 55.2165 82.8559 56 81.8868 56H56.1509C55.1818 56 54.3962 55.2165 54.3962 54.25Z" fill="currentColor"></path>
		<path d="M79.5472 8.75C78.5781 8.75 77.7924 9.5335 77.7924 10.5C77.7924 11.4665 78.5781 12.25 79.5472 12.25H105.283C106.252 12.25 107.038 11.4665 107.038 10.5C107.038 9.5335 106.252 8.75 105.283 8.75H79.5472Z" fill="currentColor"></path>
		<path d="M77.7924 28C77.7924 27.0335 78.5781 26.25 79.5472 26.25H105.283C106.252 26.25 107.038 27.0335 107.038 28C107.038 28.9665 106.252 29.75 105.283 29.75H79.5472C78.5781 29.75 77.7924 28.9665 77.7924 28Z" fill="currentColor"></path>
		<path d="M79.5472 43.75C78.5781 43.75 77.7924 44.5335 77.7924 45.5C77.7924 46.4665 78.5781 47.25 79.5472 47.25H105.283C106.252 47.25 107.038 46.4665 107.038 45.5C107.038 44.5335 106.252 43.75 105.283 43.75H79.5472Z" fill="currentColor"></path>
		<path d="M101.189 1.75C101.189 0.783502 101.974 0 102.943 0H128.679C129.648 0 130.434 0.783502 130.434 1.75C130.434 2.7165 129.648 3.5 128.679 3.5H102.943C101.974 3.5 101.189 2.7165 101.189 1.75Z" fill="currentColor"></path>
		<path d="M102.943 17.5C101.974 17.5 101.189 18.2835 101.189 19.25C101.189 20.2165 101.974 21 102.943 21H128.679C129.648 21 130.434 20.2165 130.434 19.25C130.434 18.2835 129.648 17.5 128.679 17.5H102.943Z" fill="currentColor"></path>
		<path d="M101.189 36.75C101.189 35.7835 101.974 35 102.943 35H128.679C129.648 35 130.434 35.7835 130.434 36.75C130.434 37.7165 129.648 38.5 128.679 38.5H102.943C101.974 38.5 101.189 37.7165 101.189 36.75Z" fill="currentColor"></path>
		<path d="M102.943 52.5C101.974 52.5 101.189 53.2835 101.189 54.25C101.189 55.2165 101.974 56 102.943 56H128.679C129.648 56 130.434 55.2165 130.434 54.25C130.434 53.2835 129.648 52.5 128.679 52.5H102.943Z" fill="currentColor"></path>
		<path d="M124.585 10.5C124.585 9.5335 125.371 8.75 126.34 8.75H152.075C153.045 8.75 153.83 9.5335 153.83 10.5C153.83 11.4665 153.045 12.25 152.075 12.25H126.34C125.371 12.25 124.585 11.4665 124.585 10.5Z" fill="currentColor"></path>
		<path d="M126.34 26.25C125.371 26.25 124.585 27.0335 124.585 28C124.585 28.9665 125.371 29.75 126.34 29.75H152.075C153.045 29.75 153.83 28.9665 153.83 28C153.83 27.0335 153.045 26.25 152.075 26.25H126.34Z" fill="currentColor"></path>
		<path d="M124.585 45.5C124.585 44.5335 125.371 43.75 126.34 43.75H152.075C153.045 43.75 153.83 44.5335 153.83 45.5C153.83 46.4665 153.045 47.25 152.075 47.25H126.34C125.371 47.25 124.585 46.4665 124.585 45.5Z" fill="currentColor"></path>
		<path d="M149.736 0C148.767 0 147.981 0.783502 147.981 1.75C147.981 2.7165 148.767 3.5 149.736 3.5H175.472C176.441 3.5 177.226 2.7165 177.226 1.75C177.226 0.783502 176.441 0 175.472 0H149.736Z" fill="currentColor"></path>
		<path d="M147.981 19.25C147.981 18.2835 148.767 17.5 149.736 17.5H175.472C176.441 17.5 177.226 18.2835 177.226 19.25C177.226 20.2165 176.441 21 175.472 21H149.736C148.767 21 147.981 20.2165 147.981 19.25Z" fill="currentColor"></path>
		<path d="M149.736 35C148.767 35 147.981 35.7835 147.981 36.75C147.981 37.7165 148.767 38.5 149.736 38.5H175.472C176.441 38.5 177.226 37.7165 177.226 36.75C177.226 35.7835 176.441 35 175.472 35H149.736Z" fill="currentColor"></path>
		<path d="M147.981 54.25C147.981 53.2835 148.767 52.5 149.736 52.5H175.472C176.441 52.5 177.226 53.2835 177.226 54.25C177.226 55.2165 176.441 56 175.472 56H149.736C148.767 56 147.981 55.2165 147.981 54.25Z" fill="currentColor"></path>
		<path d="M173.132 8.75C172.163 8.75 171.377 9.5335 171.377 10.5C171.377 11.4665 172.163 12.25 173.132 12.25H184.245C185.214 12.25 186 11.4665 186 10.5C186 9.5335 185.214 8.75 184.245 8.75H173.132Z" fill="currentColor"></path>
		<path d="M171.377 28C171.377 27.0335 172.163 26.25 173.132 26.25H184.245C185.214 26.25 186 27.0335 186 28C186 28.9665 185.214 29.75 184.245 29.75H173.132C172.163 29.75 171.377 28.9665 171.377 28Z" fill="currentColor"></path>
		<path d="M173.132 43.75C172.163 43.75 171.377 44.5335 171.377 45.5C171.377 46.4665 172.163 47.25 173.132 47.25H184.245C185.214 47.25 186 46.4665 186 45.5C186 44.5335 185.214 43.75 184.245 43.75H173.132Z" fill="currentColor"></path>
	</symbol>
	<symbol fill="none" xmlns="http://www.w3.org/2000/svg" viewBox="0 0 24 24" id="dropdown-arrow">
		<path d="M19.5 9L12 16.5L4.5 9" stroke="currentColor" stroke-opacity="0.5" stroke-width="1.5" stroke-linecap="round" stroke-linejoin="round"></path>
	</symbol>
	<symbol fill="none" xmlns="http://www.w3.org/2000/svg" viewBox="0 0 20 21" id="envelope">
		<path d="M17.5 4.875L10 11.75L2.5 4.875" stroke="white" stroke-opacity="0.8" stroke-width="1.5" stroke-linecap="round" stroke-linejoin="round"></path>
		<path d="M2.5 4.875H17.5V15.5C17.5 15.6658 17.4342 15.8247 17.3169 15.9419C17.1997 16.0592 17.0408 16.125 16.875 16.125H3.125C2.95924 16.125 2.80027 16.0592 2.68306 15.9419C2.56585 15.8247 2.5 15.6658 2.5 15.5V4.875Z" stroke="white" stroke-opacity="0.8" stroke-width="1.5" stroke-linecap="round" stroke-linejoin="round"></path>
		<path d="M8.63281 10.5L2.69531 15.9453" stroke="white" stroke-opacity="0.8" stroke-width="1.5" stroke-linecap="round" stroke-linejoin="round"></path>
		<path d="M17.3047 15.9453L11.3672 10.5" stroke="white" stroke-opacity="0.8" stroke-width="1.5" stroke-linecap="round" stroke-linejoin="round"></path>
	</symbol>
	<symbol fill="none" xmlns="http://www.w3.org/2000/svg" viewBox="0 0 24 25" id="female">
		<path d="M12 16.25C15.7279 16.25 18.75 13.2279 18.75 9.5C18.75 5.77208 15.7279 2.75 12 2.75C8.27208 2.75 5.25 5.77208 5.25 9.5C5.25 13.2279 8.27208 16.25 12 16.25Z" stroke="currentColor" stroke-width="1.5" stroke-linecap="round" stroke-linejoin="round"></path>
		<path d="M12 16.25V23" stroke="currentColor" stroke-width="1.5" stroke-linecap="round" stroke-linejoin="round"></path>
		<path d="M8.25 20H15.75" stroke="currentColor" stroke-width="1.5" stroke-linecap="round" stroke-linejoin="round"></path>
	</symbol>
	<symbol fill="none" xmlns="http://www.w3.org/2000/svg" viewBox="0 0 24 25" id="google">
		<g id="Google" clip-path="url(#clip0_46_10143)">
			<g id="Google_2">
				<rect id="Rectangle" y="0.5" width="24" height="24" rx="12" fill="#EA4335"></rect>
				<path id="Vector" d="M4.00501 12.5108C3.84512 8.30093 7.53255 4.41055 11.7466 4.36007C13.8944 4.17688 15.984 5.01094 17.6094 6.37127C16.9426 7.10438 16.2642 7.82902 15.5396 8.50742C14.1087 7.63806 12.3858 6.97555 10.7135 7.56394C8.01611 8.33199 6.38259 11.5168 7.38078 14.1556C8.20742 16.9115 11.5595 18.424 14.1867 17.2663C15.547 16.7792 16.4439 15.524 16.8374 14.1753C15.2784 14.1443 13.719 14.1637 12.1599 14.1206C12.156 13.193 12.1522 12.269 12.156 11.3414C14.756 11.3375 17.3598 11.3297 19.9636 11.353C20.1235 13.6258 19.7882 16.0581 18.3107 17.8822C16.2875 20.486 12.5496 21.2502 9.50881 20.2287C6.28164 19.1687 3.93477 15.9176 4.00501 12.5108Z" fill="white"></path>
			</g>
		</g>
		<defs>
			<clipPath id="clip0_46_10143">
				<rect width="24" height="24" fill="white" transform="translate(0 0.5)"></rect>
			</clipPath>
		</defs>
	</symbol>
	<symbol fill="none" xmlns="http://www.w3.org/2000/svg" viewBox="0 0 24 24" id="info">
		<path d="M12 21C16.9706 21 21 16.9706 21 12C21 7.02944 16.9706 3 12 3C7.02944 3 3 7.02944 3 12C3 16.9706 7.02944 21 12 21Z" stroke="white" stroke-opacity="0.8" stroke-width="1.5" stroke-linecap="round" stroke-linejoin="round"></path>
		<path d="M11.25 11.25H12V16.5H12.75" stroke="white" stroke-opacity="0.8" stroke-width="1.5" stroke-linecap="round" stroke-linejoin="round"></path>
		<path d="M11.8125 8.8125C12.3303 8.8125 12.75 8.39277 12.75 7.875C12.75 7.35723 12.3303 6.9375 11.8125 6.9375C11.2947 6.9375 10.875 7.35723 10.875 7.875C10.875 8.39277 11.2947 8.8125 11.8125 8.8125Z" fill="white" fill-opacity="0.8"></path>
	</symbol>
</svg>
