<svg width="511" height="511" viewBox="0 0 511 511" fill="none" xmlns="http://www.w3.org/2000/svg">
<path fill-rule="evenodd" clip-rule="evenodd" d="M469.001 114.434C490.914 147.229 504.856 184.518 509.928 223.334C512.304 241.522 497.213 256.453 478.87 256.453C460.528 256.453 445.964 241.46 442.781 223.396C427.145 134.662 349.672 67.2487 256.454 67.2487C151.958 67.2487 67.2485 151.959 67.2485 256.454C67.2485 360.949 151.958 445.659 256.454 445.659C256.454 445.659 256.454 445.659 256.454 445.659V478.87C256.454 497.212 241.523 512.304 223.335 509.927C184.519 504.855 147.229 490.913 114.435 469C72.3967 440.912 39.6322 400.988 20.2843 354.278C0.936444 307.568 -4.12584 256.17 5.73762 206.583C15.6011 156.996 39.9473 111.447 75.6975 75.697C111.448 39.9468 156.996 15.6006 206.583 5.73713C256.17 -4.12633 307.569 0.935955 354.279 20.2838C400.988 39.6317 440.912 72.3962 469.001 114.434Z" fill="url(#paint0_angular_241_28305)"/>
<defs>
<radialGradient id="paint0_angular_241_28305" cx="0" cy="0" r="1" gradientUnits="userSpaceOnUse" gradientTransform="translate(255.5 255.5) rotate(90) scale(254.675 254.675)">
<stop offset="0.343144" stop-color="#FEC305"/>
<stop offset="0.749867" stop-color="#FF7422"/>
<stop offset="1" stop-color="#FFC404" stop-opacity="0"/>
</radialGradient>
</defs>
</svg>
