<svg width="186" height="56" viewBox="0 0 186 56" fill="none" xmlns="http://www.w3.org/2000/svg">
<path d="M7.60377 1.75C7.60377 0.783502 8.38939 0 9.35849 0H35.0943C36.0634 0 36.8491 0.783502 36.8491 1.75C36.8491 2.7165 36.0634 3.5 35.0943 3.5H9.35849C8.38939 3.5 7.60377 2.7165 7.60377 1.75Z" fill="currentColor"/>
<path d="M7.60377 19.25C7.60377 18.2835 8.38939 17.5 9.35849 17.5H35.0943C36.0634 17.5 36.8491 18.2835 36.8491 19.25C36.8491 20.2165 36.0634 21 35.0943 21H9.35849C8.38939 21 7.60377 20.2165 7.60377 19.25Z" fill="currentColor"/>
<path d="M9.35849 35C8.38939 35 7.60377 35.7835 7.60377 36.75C7.60377 37.7165 8.38939 38.5 9.35849 38.5H35.0943C36.0634 38.5 36.8491 37.7165 36.8491 36.75C36.8491 35.7835 36.0634 35 35.0943 35H9.35849Z" fill="currentColor"/>
<path d="M7.60377 54.25C7.60377 53.2835 8.38939 52.5 9.35849 52.5H35.0943C36.0634 52.5 36.8491 53.2835 36.8491 54.25C36.8491 55.2165 36.0634 56 35.0943 56H9.35849C8.38939 56 7.60377 55.2165 7.60377 54.25Z" fill="currentColor"/>
<path d="M32.7547 8.75C31.7856 8.75 31 9.5335 31 10.5C31 11.4665 31.7856 12.25 32.7547 12.25H58.4906C59.4597 12.25 60.2453 11.4665 60.2453 10.5C60.2453 9.5335 59.4597 8.75 58.4906 8.75H32.7547Z" fill="currentColor"/>
<path d="M31 28C31 27.0335 31.7856 26.25 32.7547 26.25H58.4906C59.4597 26.25 60.2453 27.0335 60.2453 28C60.2453 28.9665 59.4597 29.75 58.4906 29.75H32.7547C31.7856 29.75 31 28.9665 31 28Z" fill="currentColor"/>
<path d="M32.7547 43.75C31.7856 43.75 31 44.5335 31 45.5C31 46.4665 31.7856 47.25 32.7547 47.25H58.4906C59.4597 47.25 60.2453 46.4665 60.2453 45.5C60.2453 44.5335 59.4597 43.75 58.4906 43.75H32.7547Z" fill="currentColor"/>
<path d="M0 10.5C0 9.5335 0.785613 8.75 1.75472 8.75H11.6981C12.6672 8.75 13.4528 9.5335 13.4528 10.5C13.4528 11.4665 12.6672 12.25 11.6981 12.25H1.75472C0.785613 12.25 0 11.4665 0 10.5Z" fill="currentColor"/>
<path d="M1.75472 26.25C0.785613 26.25 0 27.0335 0 28C0 28.9665 0.785613 29.75 1.75472 29.75H11.6981C12.6672 29.75 13.4528 28.9665 13.4528 28C13.4528 27.0335 12.6672 26.25 11.6981 26.25H1.75472Z" fill="currentColor"/>
<path d="M0 45.5C0 44.5335 0.785613 43.75 1.75472 43.75H11.6981C12.6672 43.75 13.4528 44.5335 13.4528 45.5C13.4528 46.4665 12.6672 47.25 11.6981 47.25H1.75472C0.785613 47.25 0 46.4665 0 45.5Z" fill="currentColor"/>
<path d="M56.1509 0C55.1818 0 54.3962 0.783502 54.3962 1.75C54.3962 2.7165 55.1818 3.5 56.1509 3.5H81.8868C82.8559 3.5 83.6415 2.7165 83.6415 1.75C83.6415 0.783502 82.8559 0 81.8868 0H56.1509Z" fill="currentColor"/>
<path d="M54.3962 19.25C54.3962 18.2835 55.1818 17.5 56.1509 17.5H81.8868C82.8559 17.5 83.6415 18.2835 83.6415 19.25C83.6415 20.2165 82.8559 21 81.8868 21H56.1509C55.1818 21 54.3962 20.2165 54.3962 19.25Z" fill="currentColor"/>
<path d="M56.1509 35C55.1818 35 54.3962 35.7835 54.3962 36.75C54.3962 37.7165 55.1818 38.5 56.1509 38.5H81.8868C82.8559 38.5 83.6415 37.7165 83.6415 36.75C83.6415 35.7835 82.8559 35 81.8868 35H56.1509Z" fill="currentColor"/>
<path d="M54.3962 54.25C54.3962 53.2835 55.1818 52.5 56.1509 52.5H81.8868C82.8559 52.5 83.6415 53.2835 83.6415 54.25C83.6415 55.2165 82.8559 56 81.8868 56H56.1509C55.1818 56 54.3962 55.2165 54.3962 54.25Z" fill="currentColor"/>
<path d="M79.5472 8.75C78.5781 8.75 77.7924 9.5335 77.7924 10.5C77.7924 11.4665 78.5781 12.25 79.5472 12.25H105.283C106.252 12.25 107.038 11.4665 107.038 10.5C107.038 9.5335 106.252 8.75 105.283 8.75H79.5472Z" fill="currentColor"/>
<path d="M77.7924 28C77.7924 27.0335 78.5781 26.25 79.5472 26.25H105.283C106.252 26.25 107.038 27.0335 107.038 28C107.038 28.9665 106.252 29.75 105.283 29.75H79.5472C78.5781 29.75 77.7924 28.9665 77.7924 28Z" fill="currentColor"/>
<path d="M79.5472 43.75C78.5781 43.75 77.7924 44.5335 77.7924 45.5C77.7924 46.4665 78.5781 47.25 79.5472 47.25H105.283C106.252 47.25 107.038 46.4665 107.038 45.5C107.038 44.5335 106.252 43.75 105.283 43.75H79.5472Z" fill="currentColor"/>
<path d="M101.189 1.75C101.189 0.783502 101.974 0 102.943 0H128.679C129.648 0 130.434 0.783502 130.434 1.75C130.434 2.7165 129.648 3.5 128.679 3.5H102.943C101.974 3.5 101.189 2.7165 101.189 1.75Z" fill="currentColor"/>
<path d="M102.943 17.5C101.974 17.5 101.189 18.2835 101.189 19.25C101.189 20.2165 101.974 21 102.943 21H128.679C129.648 21 130.434 20.2165 130.434 19.25C130.434 18.2835 129.648 17.5 128.679 17.5H102.943Z" fill="currentColor"/>
<path d="M101.189 36.75C101.189 35.7835 101.974 35 102.943 35H128.679C129.648 35 130.434 35.7835 130.434 36.75C130.434 37.7165 129.648 38.5 128.679 38.5H102.943C101.974 38.5 101.189 37.7165 101.189 36.75Z" fill="currentColor"/>
<path d="M102.943 52.5C101.974 52.5 101.189 53.2835 101.189 54.25C101.189 55.2165 101.974 56 102.943 56H128.679C129.648 56 130.434 55.2165 130.434 54.25C130.434 53.2835 129.648 52.5 128.679 52.5H102.943Z" fill="currentColor"/>
<path d="M124.585 10.5C124.585 9.5335 125.371 8.75 126.34 8.75H152.075C153.045 8.75 153.83 9.5335 153.83 10.5C153.83 11.4665 153.045 12.25 152.075 12.25H126.34C125.371 12.25 124.585 11.4665 124.585 10.5Z" fill="currentColor"/>
<path d="M126.34 26.25C125.371 26.25 124.585 27.0335 124.585 28C124.585 28.9665 125.371 29.75 126.34 29.75H152.075C153.045 29.75 153.83 28.9665 153.83 28C153.83 27.0335 153.045 26.25 152.075 26.25H126.34Z" fill="currentColor"/>
<path d="M124.585 45.5C124.585 44.5335 125.371 43.75 126.34 43.75H152.075C153.045 43.75 153.83 44.5335 153.83 45.5C153.83 46.4665 153.045 47.25 152.075 47.25H126.34C125.371 47.25 124.585 46.4665 124.585 45.5Z" fill="currentColor"/>
<path d="M149.736 0C148.767 0 147.981 0.783502 147.981 1.75C147.981 2.7165 148.767 3.5 149.736 3.5H175.472C176.441 3.5 177.226 2.7165 177.226 1.75C177.226 0.783502 176.441 0 175.472 0H149.736Z" fill="currentColor"/>
<path d="M147.981 19.25C147.981 18.2835 148.767 17.5 149.736 17.5H175.472C176.441 17.5 177.226 18.2835 177.226 19.25C177.226 20.2165 176.441 21 175.472 21H149.736C148.767 21 147.981 20.2165 147.981 19.25Z" fill="currentColor"/>
<path d="M149.736 35C148.767 35 147.981 35.7835 147.981 36.75C147.981 37.7165 148.767 38.5 149.736 38.5H175.472C176.441 38.5 177.226 37.7165 177.226 36.75C177.226 35.7835 176.441 35 175.472 35H149.736Z" fill="currentColor"/>
<path d="M147.981 54.25C147.981 53.2835 148.767 52.5 149.736 52.5H175.472C176.441 52.5 177.226 53.2835 177.226 54.25C177.226 55.2165 176.441 56 175.472 56H149.736C148.767 56 147.981 55.2165 147.981 54.25Z" fill="currentColor"/>
<path d="M173.132 8.75C172.163 8.75 171.377 9.5335 171.377 10.5C171.377 11.4665 172.163 12.25 173.132 12.25H184.245C185.214 12.25 186 11.4665 186 10.5C186 9.5335 185.214 8.75 184.245 8.75H173.132Z" fill="currentColor"/>
<path d="M171.377 28C171.377 27.0335 172.163 26.25 173.132 26.25H184.245C185.214 26.25 186 27.0335 186 28C186 28.9665 185.214 29.75 184.245 29.75H173.132C172.163 29.75 171.377 28.9665 171.377 28Z" fill="currentColor"/>
<path d="M173.132 43.75C172.163 43.75 171.377 44.5335 171.377 45.5C171.377 46.4665 172.163 47.25 173.132 47.25H184.245C185.214 47.25 186 46.4665 186 45.5C186 44.5335 185.214 43.75 184.245 43.75H173.132Z" fill="currentColor"/>
</svg>
