<svg width="24" height="25" viewBox="0 0 24 25" fill="none" xmlns="http://www.w3.org/2000/svg">
<g id="Google" clip-path="url(#clip0_46_10143)">
<g id="Google_2">
<rect id="Rectangle" y="0.5" width="24" height="24" rx="12" fill="#EA4335"/>
<path id="Vector" d="M4.00501 12.5108C3.84512 8.30093 7.53255 4.41055 11.7466 4.36007C13.8944 4.17688 15.984 5.01094 17.6094 6.37127C16.9426 7.10438 16.2642 7.82902 15.5396 8.50742C14.1087 7.63806 12.3858 6.97555 10.7135 7.56394C8.01611 8.33199 6.38259 11.5168 7.38078 14.1556C8.20742 16.9115 11.5595 18.424 14.1867 17.2663C15.547 16.7792 16.4439 15.524 16.8374 14.1753C15.2784 14.1443 13.719 14.1637 12.1599 14.1206C12.156 13.193 12.1522 12.269 12.156 11.3414C14.756 11.3375 17.3598 11.3297 19.9636 11.353C20.1235 13.6258 19.7882 16.0581 18.3107 17.8822C16.2875 20.486 12.5496 21.2502 9.50881 20.2287C6.28164 19.1687 3.93477 15.9176 4.00501 12.5108Z" fill="white"/>
</g>
</g>
<defs>
<clipPath id="clip0_46_10143">
<rect width="24" height="24" fill="white" transform="translate(0 0.5)"/>
</clipPath>
</defs>
</svg>
