<svg width="20" height="21" viewBox="0 0 20 21" fill="none" xmlns="http://www.w3.org/2000/svg">
<path d="M12.4531 3.625C13.5132 3.90951 14.4799 4.46785 15.256 5.24399C16.0321 6.02013 16.5905 6.98676 16.875 8.04687" stroke="white" stroke-opacity="0.8" stroke-width="1.5" stroke-linecap="round" stroke-linejoin="round"/>
<path d="M11.8047 6.03906C12.4423 6.2084 13.0238 6.54327 13.4903 7.00974C13.9567 7.47622 14.2916 8.05772 14.4609 8.69531" stroke="white" stroke-opacity="0.8" stroke-width="1.5" stroke-linecap="round" stroke-linejoin="round"/>
<path d="M7.22656 10.2501C7.8697 11.5783 8.94366 12.6495 10.2734 13.2892C10.3715 13.3357 10.48 13.3558 10.5882 13.3475C10.6965 13.3393 10.8007 13.3031 10.8906 13.2423L12.8437 11.9376C12.93 11.8791 13.0298 11.8434 13.1336 11.8338C13.2374 11.8243 13.342 11.8412 13.4375 11.883L17.0938 13.4533C17.2187 13.5053 17.3231 13.5969 17.3909 13.7141C17.4586 13.8313 17.486 13.9675 17.4688 14.1017C17.3529 15.0062 16.9114 15.8375 16.2269 16.44C15.5424 17.0425 14.6619 17.3749 13.75 17.3751C10.9321 17.3751 8.22956 16.2557 6.23699 14.2632C4.24442 12.2706 3.125 9.56807 3.125 6.75015C3.12521 5.83827 3.45767 4.95771 4.06018 4.27324C4.66269 3.58877 5.49395 3.14728 6.39844 3.0314C6.53269 3.01415 6.66888 3.04152 6.78605 3.10928C6.90322 3.17704 6.99487 3.28144 7.04687 3.4064L8.61719 7.07046C8.65802 7.16448 8.67511 7.2671 8.66693 7.36928C8.65876 7.47146 8.62558 7.57006 8.57031 7.6564L7.26562 9.64077C7.20754 9.73052 7.17345 9.83368 7.16661 9.94037C7.15977 10.0471 7.18041 10.1537 7.22656 10.2501V10.2501Z" stroke="white" stroke-opacity="0.8" stroke-width="1.5" stroke-linecap="round" stroke-linejoin="round"/>
</svg>
