<svg width="156" height="40" viewBox="0 0 156 40" fill="none" xmlns="http://www.w3.org/2000/svg">
<path fill-rule="evenodd" clip-rule="evenodd" d="M155.793 0.00235051C153.69 0.0375907 151.612 0.468763 149.668 1.27417C147.637 2.11538 145.792 3.34835 144.237 4.9027C142.683 6.45705 141.45 8.30233 140.609 10.3332C140.523 10.5411 140.441 10.7506 140.363 10.9614C140.286 10.7506 140.204 10.5411 140.118 10.3332C139.277 8.30233 138.044 6.45705 136.489 4.9027C134.935 3.34835 133.09 2.11538 131.059 1.27417C129.028 0.432963 126.851 0 124.653 0C122.455 0 120.278 0.432964 118.247 1.27417C116.217 2.11538 114.371 3.34835 112.817 4.9027C111.263 6.45705 110.03 8.30233 109.188 10.3332C109.136 10.4593 109.086 10.586 109.036 10.7132C108.987 10.586 108.937 10.4593 108.884 10.3332C108.043 8.30233 106.81 6.45705 105.256 4.9027C103.702 3.34835 101.856 2.11538 99.8254 1.27417C97.7946 0.432963 95.6179 0 93.4197 0C91.2216 0 89.0449 0.432964 87.014 1.27417C84.9832 2.11538 83.1379 3.34835 81.5836 4.9027C80.0292 6.45705 78.7962 8.30233 77.955 10.3332C77.8689 10.5411 77.787 10.7506 77.7095 10.9614C77.632 10.7506 77.5501 10.5411 77.464 10.3332C76.6228 8.30233 75.3898 6.45705 73.8354 4.9027C72.2811 3.34835 70.4358 2.11538 68.405 1.27417C66.3741 0.432963 64.1975 0 61.9993 0C59.8011 0 57.6244 0.432964 55.5936 1.27417C53.5627 2.11538 51.7175 3.34835 50.1631 4.9027C48.6088 6.45705 47.3758 8.30233 46.5346 10.3332C46.4823 10.4593 46.4317 10.586 46.3826 10.7132C46.3335 10.586 46.2828 10.4593 46.2306 10.3332C45.3894 8.30233 44.1564 6.45705 42.602 4.9027C41.0477 3.34835 39.2024 2.11538 37.1716 1.27417C35.1407 0.432963 32.964 0 30.7659 0C28.5677 0 26.391 0.432964 24.3602 1.27417C22.3293 2.11538 20.484 3.34835 18.9297 4.9027C17.3753 6.45705 16.1424 8.30233 15.3012 10.3332C15.215 10.5411 15.1332 10.7506 15.0556 10.9614C14.9781 10.7506 14.8962 10.5411 14.8101 10.3332C13.9689 8.30233 12.7359 6.45705 11.1816 4.9027C9.62724 3.34835 7.78196 2.11538 5.75111 1.27417C3.92207 0.51656 1.97477 0.0900845 0 0.0128032V2.45044C7.57497 2.83808 13.6039 9.07897 13.6526 16.7389L16.2716 16.7389C16.3219 8.82843 22.7501 2.43134 30.6724 2.43134C38.5946 2.43134 45.0228 8.82843 45.0731 16.7389H47.5047L47.505 16.7389C47.5553 8.82843 53.9835 2.43134 61.9058 2.43134C69.828 2.43134 76.2562 8.82843 76.3065 16.7389L78.9255 16.7389C78.9758 8.82843 85.4039 2.43134 93.3262 2.43134C101.249 2.43134 107.677 8.82843 107.727 16.7389H110.159L110.159 16.7389C110.209 8.82843 116.637 2.43134 124.56 2.43134C132.482 2.43134 138.91 8.82843 138.96 16.7389L141.579 16.7389C141.629 8.89077 147.957 2.53225 155.793 2.43253V0.00235051ZM155.793 22.6324C153.69 22.6676 151.612 23.0988 149.668 23.9042C147.637 24.7454 145.792 25.9784 144.238 27.5327C142.683 29.0871 141.45 30.9324 140.609 32.9632C140.523 33.1711 140.441 33.3806 140.363 33.5915C140.286 33.3806 140.204 33.1711 140.118 32.9632C139.277 30.9324 138.044 29.0871 136.489 27.5327C134.935 25.9784 133.09 24.7454 131.059 23.9042C129.028 23.063 126.851 22.63 124.653 22.63C122.455 22.63 120.278 23.063 118.248 23.9042C116.217 24.7454 114.371 25.9784 112.817 27.5327C111.263 29.0871 110.03 30.9324 109.189 32.9632C109.136 33.0893 109.086 33.216 109.037 33.3433C108.987 33.216 108.937 33.0893 108.885 32.9632C108.043 30.9324 106.81 29.0871 105.256 27.5327C103.702 25.9784 101.856 24.7454 99.8255 23.9042C97.7947 23.063 95.618 22.63 93.4198 22.63C91.2216 22.63 89.045 23.063 87.0141 23.9042C84.9833 24.7454 83.138 25.9784 81.5836 27.5327C80.0293 29.0871 78.7963 30.9324 77.9551 32.9632C77.869 33.1711 77.7871 33.3806 77.7096 33.5915C77.632 33.3806 77.5502 33.1711 77.4641 32.9632C76.6229 30.9324 75.3899 29.0871 73.8355 27.5327C72.2812 25.9784 70.4359 24.7454 68.4051 23.9042C66.3742 23.063 64.1976 22.63 61.9994 22.63C59.8012 22.63 57.6245 23.063 55.5937 23.9042C53.5628 24.7454 51.7176 25.9784 50.1632 27.5327C48.6089 29.0871 47.3759 30.9324 46.5347 32.9632C46.4824 33.0893 46.4318 33.216 46.3827 33.3433C46.3336 33.216 46.2829 33.0893 46.2307 32.9632C45.3894 30.9324 44.1565 29.0871 42.6021 27.5327C41.0478 25.9784 39.2025 24.7454 37.1716 23.9042C35.1408 23.063 32.9641 22.63 30.766 22.63C28.5678 22.63 26.3911 23.063 24.3603 23.9042C22.3294 24.7454 20.4841 25.9784 18.9298 27.5327C17.3754 29.0871 16.1425 30.9324 15.3013 32.9632C15.2151 33.1711 15.1333 33.3806 15.0557 33.5915C14.9782 33.3806 14.8963 33.1711 14.8102 32.9632C13.969 30.9324 12.736 29.0871 11.1817 27.5327C9.62733 25.9784 7.78205 24.7454 5.7512 23.9042C3.92214 23.1466 1.97481 22.7201 0 22.6428V25.0805C7.57502 25.4681 13.604 31.709 13.6527 39.3689H16.2717C16.322 31.4585 22.7502 25.0614 30.6724 25.0614C38.5947 25.0614 45.0229 31.4585 45.0732 39.3689H47.5048H47.5051C47.5554 31.4585 53.9836 25.0614 61.9059 25.0614C69.8281 25.0614 76.2563 31.4585 76.3066 39.3689H78.9256C78.9759 31.4585 85.404 25.0614 93.3263 25.0614C101.249 25.0614 107.677 31.4585 107.727 39.3689H110.159H110.159C110.209 31.4585 116.637 25.0614 124.56 25.0614C132.482 25.0614 138.91 31.4585 138.96 39.3689H141.579C141.629 31.5208 147.957 25.1623 155.793 25.0626V22.6324Z" fill="currentColor"/>
</svg>
