<svg width="24" height="25" viewBox="0 0 24 25" fill="none" xmlns="http://www.w3.org/2000/svg">
<g id="Yandex (&#208;&#175;&#208;&#189;&#208;&#180;&#208;&#181;&#208;&#186;&#209;&#129;)" clip-path="url(#clip0_46_10139)">
<g id="Yandex (&#208;&#175;&#208;&#189;&#208;&#180;&#208;&#181;&#208;&#186;&#209;&#129;)_2">
<rect id="Rectangle" y="0.5" width="24" height="24" rx="12" fill="#FF0000"/>
<path id="Vector" d="M14.9586 4.5H12.5343C10.1521 4.5 8.13195 6.3132 8.13195 9.83356C8.13195 11.9454 9.1103 13.5025 10.8539 14.2706L7.60026 20.1588C7.49377 20.351 7.60026 20.5 7.77031 20.5H9.28027C9.40785 20.5 9.49325 20.4575 9.53572 20.351L12.4917 14.5694H13.5551V20.351C13.5551 20.4146 13.6186 20.5 13.7037 20.5H15.0225C15.1501 20.5 15.1925 20.4361 15.1925 20.33V4.71328C15.1926 4.56394 15.1077 4.5 14.9586 4.5ZM13.555 13.2042H12.6618C11.2584 13.2042 9.89744 12.1802 9.89744 9.6202C9.89744 6.95312 11.1733 5.86525 12.4703 5.86525H13.5551V13.2042H13.555Z" fill="white"/>
</g>
</g>
<defs>
<clipPath id="clip0_46_10139">
<rect width="24" height="24" fill="white" transform="translate(0 0.5)"/>
</clipPath>
</defs>
</svg>
